# Blender 5.1.0
# www.blender.org
mtllib slime.mtl
o slime
v 0.009166 0.024831 0.006587
v 0.016037 0.022801 0.006587
v 0.021117 0.020429 0.006621
v 0.021117 0.020429 0.006621
v 0.009166 0.023585 0.008273
v 0.015844 0.021580 0.008572
v 0.018796 0.019209 0.009370
v 0.018796 0.019209 0.009370
v -0.030607 -0.002359 0.010116
v 0.019637 -0.023194 0.009457
v 0.019637 -0.023194 0.009457
v -0.028794 -0.002359 0.010884
v -0.031062 0.018195 0.011349
v -0.030181 0.019221 0.010814
v -0.031516 0.018603 0.010938
v -0.029842 0.018839 0.011136
v -0.028636 0.017522 0.010562
v -0.028636 0.017522 0.010562
v -0.030965 0.017061 0.006225
v -0.029814 0.017034 0.010783
v -0.029814 0.017034 0.010783
v -0.020275 0.017833 0.009457
v -0.020275 0.017833 0.009457
v -0.030113 0.016726 0.006501
v -0.029070 0.017434 0.006140
v -0.032503 0.018492 0.007037
v -0.031041 0.019360 0.006846
v -0.021495 0.019830 0.004381
v -0.021495 0.019830 0.004381
v -0.021495 0.019830 0.004381
v -0.020162 -0.024649 0.009036
v -0.018559 -0.024151 0.009370
v -0.018559 -0.024151 0.009370
v -0.021424 -0.025489 0.004320
v -0.021424 -0.025489 0.004320
v -0.021424 -0.025489 0.004320
v -0.021424 -0.025489 0.004320
v -0.023971 -0.024539 0.005398
v -0.022456 -0.025025 0.005708
v -0.026046 -0.022798 0.005385
v -0.025200 -0.022597 0.004381
v -0.025200 -0.022597 0.004381
v -0.025200 -0.022597 0.004381
v -0.026260 -0.021689 0.005912
v -0.026260 -0.021689 0.005912
v -0.026659 -0.022423 0.006056
v -0.024630 -0.022457 0.009402
v -0.024630 -0.022457 0.009402
v -0.024313 -0.021891 0.009198
v -0.024313 -0.021891 0.009198
v -0.024313 -0.021891 0.009198
v -0.025952 -0.021712 0.007755
v -0.025952 -0.021712 0.007755
v -0.019637 -0.023194 0.009457
v -0.019637 -0.023194 0.009457
v 0.018559 -0.024151 0.009370
v 0.018559 -0.024151 0.009370
v -0.015844 0.021580 0.008572
v 0.019623 -0.025489 0.008462
v 0.019623 -0.025489 0.008462
v 0.021424 -0.025489 0.004320
v 0.021424 -0.025489 0.004320
v 0.021424 -0.025489 0.004320
v 0.021424 -0.025489 0.004320
v -0.035915 -0.016879 0.012054
v -0.037712 -0.010090 0.012810
v -0.035049 -0.016879 0.012492
v -0.035351 0.011748 0.012065
v -0.037335 0.005353 0.012630
v -0.035839 -0.010079 0.012787
v -0.034456 0.011748 0.012362
v -0.038239 -0.002359 0.012935
v -0.037425 -0.002359 0.013346
v -0.036794 -0.010079 0.013174
v -0.030800 -0.024504 0.010695
v -0.030394 -0.024045 0.011277
v -0.031878 -0.023133 0.011627
v -0.032217 -0.023756 0.011142
v -0.033477 -0.016879 0.011817
v -0.033477 -0.016879 0.011817
v -0.035367 -0.010081 0.012279
v -0.035367 -0.010081 0.012279
v -0.035953 -0.002359 0.012510
v -0.035953 -0.002359 0.012510
v -0.035482 0.005353 0.012610
v -0.033038 0.011748 0.011651
v -0.033038 0.011748 0.011651
v -0.034046 -0.016879 0.012184
v -0.029649 -0.022602 0.010686
v -0.029649 -0.022602 0.010686
v -0.030775 -0.022048 0.011118
v -0.030775 -0.022048 0.011118
v -0.029875 -0.022967 0.011180
v -0.033379 -0.016879 0.007382
v -0.031822 -0.021863 0.006363
v -0.034356 -0.016879 0.006994
v -0.036275 -0.010083 0.007675
v -0.035323 -0.010085 0.008001
v -0.036807 -0.002359 0.007751
v -0.032941 0.011748 0.007246
v -0.035086 0.005353 0.007794
v -0.036040 0.005353 0.007461
v -0.035954 -0.002359 0.008094
v -0.034053 0.011748 0.006845
v -0.031071 -0.021559 0.006704
v -0.029800 -0.022490 0.006481
v -0.030386 -0.022881 0.006080
v -0.032976 -0.023884 0.007205
v -0.031194 -0.024100 0.006207
v -0.031402 -0.024553 0.006721
v -0.032945 -0.023368 0.006551
v -0.038498 -0.010077 0.008827
v -0.038007 0.005353 0.008622
v -0.036198 0.011748 0.008039
v -0.038894 -0.002359 0.008979
v -0.037943 -0.010077 0.008057
v -0.036152 -0.016879 0.007370
v -0.036654 -0.016879 0.008105
v -0.031185 -0.022498 0.011532
v -0.019623 -0.025489 0.008462
v -0.019623 -0.025489 0.008462
v -0.016100 0.022960 0.004381
v -0.016100 0.022960 0.004381
v -0.009166 0.025074 0.004381
v -0.009166 0.025074 0.004381
v -0.000000 0.026009 0.004381
v -0.000000 0.026009 0.004381
v -0.000000 0.026009 0.004381
v 0.009166 0.025074 0.004381
v 0.009166 0.025074 0.004381
v -0.029067 -0.016879 0.004381
v -0.029067 -0.016879 0.004381
v -0.031313 -0.009978 0.004381
v -0.031313 -0.009978 0.004381
v -0.030959 0.005353 0.004381
v -0.030959 0.005353 0.004381
v -0.028743 0.011748 0.004381
v -0.028743 0.011748 0.004381
v -0.024751 0.017332 0.004381
v -0.024751 0.017332 0.004381
v -0.024751 0.017332 0.004381
v -0.025654 0.011748 0.010156
v -0.021117 0.020429 0.006621
v -0.021117 0.020429 0.006621
v -0.009166 0.024831 0.006587
v -0.000000 0.025766 0.006587
v -0.000000 0.024103 0.008273
v -0.009166 0.023585 0.008273
v -0.018796 0.019209 0.009370
v -0.018796 0.019209 0.009370
v -0.016037 0.022801 0.006587
v -0.027247 0.011748 0.009510
v -0.031017 0.005353 0.007528
v -0.031838 -0.002359 0.008377
v -0.023356 0.016657 0.009318
v -0.023356 0.016657 0.009318
v -0.023356 0.016657 0.009318
v -0.028591 0.011748 0.007384
v -0.027993 -0.016879 0.009562
v -0.029201 -0.016879 0.007929
v -0.025549 -0.016879 0.010342
v -0.030116 -0.009958 0.009908
v -0.031310 -0.009944 0.008034
v -0.028367 -0.009976 0.010820
v -0.028583 0.005353 0.010592
v -0.030122 0.005353 0.009472
v -0.032257 0.018047 0.006378
v -0.025761 0.016624 0.005657
v -0.025761 0.016624 0.005657
v -0.025779 0.017978 0.005232
v -0.026306 0.017322 0.005935
v -0.025579 0.016554 0.007588
v -0.025579 0.016554 0.007588
v -0.023860 0.017416 0.009561
v -0.023860 0.017416 0.009561
v 0.021495 0.019830 0.004381
v 0.021495 0.019830 0.004381
v 0.021495 0.019830 0.004381
v 0.020275 0.017833 0.009457
v 0.020275 0.017833 0.009457
v -0.003962 -0.025489 -0.004313
v -0.003962 -0.025489 -0.004313
v -0.003962 -0.025489 -0.004313
v -0.003962 -0.024137 -0.004313
v -0.003962 -0.024137 -0.004313
v -0.003962 -0.024137 -0.008682
v -0.003962 -0.024137 -0.008682
v -0.003962 -0.025489 -0.008682
v -0.003962 -0.025489 -0.008682
v -0.003962 -0.025489 -0.008682
v -0.005140 -0.025489 -0.007240
v -0.005140 -0.025489 -0.007240
v -0.005140 -0.025489 -0.007240
v 0.003887 -0.025489 -0.008682
v 0.003887 -0.025489 -0.008682
v 0.003887 -0.025489 -0.008682
v 0.003887 -0.024137 -0.008682
v 0.003887 -0.024137 -0.008682
v 0.003887 -0.024137 -0.008682
v 0.003887 -0.024137 -0.004313
v 0.003887 -0.024137 -0.004313
v 0.003887 -0.025489 -0.004313
v 0.003887 -0.025489 -0.004313
v 0.003887 -0.025489 -0.004313
v 0.007510 -0.024137 -0.009454
v 0.007510 -0.024137 -0.009454
v 0.007510 -0.024137 -0.009454
v 0.017918 -0.024137 -0.009454
v 0.017918 -0.024137 -0.009454
v 0.017918 -0.024137 -0.009454
v -0.025859 -0.004996 -0.011077
v -0.025859 -0.004996 -0.011077
v -0.025981 -0.010679 -0.011077
v -0.025981 -0.010679 -0.011077
v -0.024219 -0.012712 -0.011077
v -0.024219 -0.012712 -0.011077
v 0.018123 0.001855 -0.011077
v 0.018123 0.001855 -0.011077
v 0.018123 0.001855 -0.011077
v -0.011466 0.011074 -0.011077
v -0.011466 0.011074 -0.011077
v -0.011466 0.011074 -0.011077
v -0.023499 0.015934 -0.011077
v -0.016048 0.022646 -0.008758
v -0.016048 0.022646 -0.008758
v -0.000000 0.025726 -0.008758
v -0.000000 0.025726 -0.008758
v -0.000000 0.025726 -0.008758
v -0.021193 0.019781 -0.008758
v -0.021193 0.019781 -0.008758
v -0.000000 0.024410 -0.011077
v -0.015936 0.021247 -0.011077
v -0.009166 0.024772 -0.008758
v -0.009166 0.024772 -0.008758
v 0.017918 -0.024137 -0.004779
v 0.017918 -0.024137 -0.004779
v 0.017918 -0.024137 -0.004779
v 0.007510 -0.024137 -0.004779
v 0.007510 -0.024137 -0.004779
v 0.007510 -0.024137 -0.004779
v -0.015194 -0.024137 -0.005938
v -0.015194 -0.024137 -0.005938
v -0.015194 -0.024137 -0.005938
v -0.015194 -0.024137 -0.008588
v -0.015194 -0.024137 -0.008588
v -0.015194 -0.024137 -0.008588
v -0.010146 -0.024137 -0.005938
v -0.010146 -0.024137 -0.005938
v -0.010146 -0.024137 -0.005938
v -0.010146 -0.024137 -0.008588
v -0.010146 -0.024137 -0.008588
v -0.010146 -0.024137 -0.008588
v -0.021361 -0.025489 -0.008758
v -0.021361 -0.025489 -0.008758
v -0.021361 -0.025489 -0.008758
v -0.019653 -0.025062 -0.010383
v -0.017596 -0.024340 -0.011077
v 0.019653 -0.025062 -0.010383
v 0.017596 -0.024340 -0.011077
v 0.022462 -0.021218 -0.011077
v -0.009166 0.023486 -0.011077
v 0.021361 -0.025489 -0.008758
v 0.021361 -0.025489 -0.008758
v 0.021361 -0.025489 -0.008758
v 0.015936 0.021247 -0.011077
v -0.022462 -0.021218 -0.011077
v 0.028842 -0.016879 -0.008758
v 0.028842 -0.016879 -0.008758
v 0.023499 0.015934 -0.011077
v 0.031022 -0.010000 -0.008758
v 0.031022 -0.010000 -0.008758
v 0.026267 -0.016879 -0.011077
v 0.028862 -0.009786 -0.011077
v 0.030552 0.005353 -0.008758
v 0.030552 0.005353 -0.008758
v 0.024712 0.016714 -0.008758
v 0.024712 0.016714 -0.008758
v 0.021193 0.019781 -0.008758
v 0.021193 0.019781 -0.008758
v 0.028129 0.011748 -0.008758
v 0.028129 0.011748 -0.008758
v 0.031642 -0.002359 -0.008758
v 0.031642 -0.002359 -0.008758
v 0.029502 -0.002359 -0.011077
v 0.024856 -0.022346 -0.008758
v 0.024856 -0.022346 -0.008758
v 0.028611 0.005353 -0.011077
v 0.026726 0.011748 -0.011077
v -0.024856 -0.022346 -0.008758
v -0.024856 -0.022346 -0.008758
v -0.028842 -0.016879 -0.008758
v -0.028842 -0.016879 -0.008758
v -0.029502 -0.002359 -0.011077
v -0.031022 -0.010000 -0.008758
v -0.031022 -0.010000 -0.008758
v -0.031642 -0.002359 -0.008758
v -0.031642 -0.002359 -0.008758
v -0.024712 0.016714 -0.008758
v -0.024712 0.016714 -0.008758
v -0.028862 -0.009786 -0.011077
v -0.026726 0.011748 -0.011077
v -0.028129 0.011748 -0.008758
v -0.028129 0.011748 -0.008758
v -0.020514 0.018640 -0.011077
v -0.030552 0.005353 -0.008758
v -0.030552 0.005353 -0.008758
v -0.028611 0.005353 -0.011077
v -0.026267 -0.016879 -0.011077
v -0.031995 -0.002359 0.004381
v -0.031995 -0.002359 0.004381
v 0.016048 0.022646 -0.008758
v 0.016048 0.022646 -0.008758
v 0.009166 0.024772 -0.008758
v 0.009166 0.024772 -0.008758
v 0.020514 0.018640 -0.011077
v 0.009166 0.023486 -0.011077
v 0.017918 -0.025489 -0.004779
v 0.017918 -0.025489 -0.004779
v 0.017918 -0.025489 -0.004779
v 0.017918 -0.025489 -0.009454
v 0.017918 -0.025489 -0.009454
v 0.017918 -0.025489 -0.009454
v 0.017918 -0.025489 -0.009454
v 0.007510 -0.025489 -0.009454
v 0.007510 -0.025489 -0.009454
v 0.007510 -0.025489 -0.009454
v 0.007510 -0.025489 -0.009454
v -0.015194 -0.025489 -0.005938
v -0.015194 -0.025489 -0.005938
v -0.015194 -0.025489 -0.005938
v -0.015194 -0.025489 -0.008588
v -0.015194 -0.025489 -0.008588
v -0.015194 -0.025489 -0.008588
v -0.010146 -0.025489 -0.008588
v -0.010146 -0.025489 -0.008588
v -0.010146 -0.025489 -0.008588
v 0.007510 -0.025489 -0.004779
v 0.007510 -0.025489 -0.004779
v 0.007510 -0.025489 -0.004779
v -0.010146 -0.025489 -0.005938
v -0.010146 -0.025489 -0.005938
v -0.010146 -0.025489 -0.005938
v 0.016100 0.022960 0.004381
v 0.016100 0.022960 0.004381
v -0.020391 0.012742 -0.011077
v -0.020391 0.012742 -0.011077
v -0.024533 0.004959 -0.011077
v -0.024533 0.004959 -0.011077
v -0.023471 0.008219 -0.011077
v -0.023471 0.008219 -0.011077
v -0.025431 0.000462 -0.011077
v -0.025431 0.000462 -0.011077
v 0.004915 0.003982 -0.011077
v 0.004915 0.003982 -0.011077
v 0.004915 0.003982 -0.011077
v 0.012508 0.011056 -0.011077
v 0.012508 0.011056 -0.011077
v 0.012508 0.011056 -0.011077
v -0.023890 -0.010528 -0.011077
v -0.023890 -0.010528 -0.011077
v -0.023890 -0.010528 -0.011077
v 0.021917 -0.009377 -0.011077
v 0.021917 -0.009377 -0.011077
v 0.021917 -0.009377 -0.011077
v -0.006667 -0.007099 -0.011077
v -0.006667 -0.007099 -0.011077
v 0.009318 -0.007237 -0.011077
v 0.009318 -0.007237 -0.011077
v 0.016112 -0.008153 -0.011077
v 0.016112 -0.008153 -0.011077
v -0.016873 0.011928 -0.011077
v -0.016873 0.011928 -0.011077
v -0.016873 0.011928 -0.011077
v -0.018716 0.011342 -0.011077
v -0.018716 0.011342 -0.011077
v -0.022490 0.004349 -0.011077
v -0.022490 0.004349 -0.011077
v -0.023321 0.000174 -0.011077
v -0.023321 0.000174 -0.011077
v -0.023768 -0.004933 -0.011077
v -0.023768 -0.004933 -0.011077
v -0.021448 0.007431 -0.011077
v -0.021448 0.007431 -0.011077
v 0.021475 -0.011400 -0.011077
v 0.021475 -0.011400 -0.011077
v 0.021475 -0.011400 -0.011077
v -0.022477 -0.012643 -0.011077
v -0.022477 -0.012643 -0.011077
v -0.025463 -0.011959 -0.011077
v -0.025463 -0.011959 -0.011077
v 0.009187 -0.009257 -0.011077
v 0.009187 -0.009257 -0.011077
v -0.014505 -0.010489 -0.011077
v -0.014505 -0.010489 -0.011077
v -0.006597 -0.009259 -0.011077
v -0.006597 -0.009259 -0.011077
v 0.001759 -0.008851 -0.011077
v 0.001759 -0.008851 -0.011077
v 0.015890 -0.010250 -0.011077
v 0.015890 -0.010250 -0.011077
v 0.006357 0.002362 -0.011077
v 0.006357 0.002362 -0.011077
v 0.006357 0.002362 -0.011077
v 0.012401 0.007824 -0.011077
v 0.012401 0.007824 -0.011077
v 0.012401 0.007824 -0.011077
v 0.019720 0.003348 -0.011077
v 0.019720 0.003348 -0.011077
v 0.019720 0.003348 -0.011077
v -0.003882 0.004137 -0.011077
v -0.003882 0.004137 -0.011077
v -0.003882 0.004137 -0.011077
v -0.005482 0.002490 -0.011077
v -0.005482 0.002490 -0.011077
v -0.005482 0.002490 -0.011077
v -0.018499 0.003583 -0.011077
v -0.018499 0.003583 -0.011077
v -0.018499 0.003583 -0.011077
v -0.011358 0.007834 -0.011077
v -0.011358 0.007834 -0.011077
v -0.011358 0.007834 -0.011077
v -0.016915 0.002026 -0.011077
v -0.016915 0.002026 -0.011077
v -0.016915 0.002026 -0.011077
v -0.018928 0.013570 -0.011077
v -0.018928 0.013570 -0.011077
v -0.017109 0.014055 -0.011077
v -0.017109 0.014055 -0.011077
v -0.017109 0.014055 -0.011077
v -0.024188 0.019191 0.005282
v -0.022145 0.017749 0.009806
v -0.022732 0.019458 0.006423
v -0.020834 0.018961 0.009653
v -0.020622 0.019283 0.009387
v -0.030086 0.017335 0.011194
v -0.028926 0.017792 0.010952
v -0.030601 0.018809 0.006244
v -0.029296 0.017715 0.005887
v -0.033513 0.011748 0.012100
v -0.035403 0.011748 0.007152
v -0.038430 -0.002359 0.008241
v -0.037453 0.005353 0.007820
v -0.035044 0.005353 0.012046
v -0.035044 0.005353 0.012046
v -0.036419 0.005353 0.012902
v -0.036451 -0.002359 0.013048
v 0.030607 -0.002359 0.010116
v 0.028794 -0.002359 0.010884
v 0.031062 0.018195 0.011349
v 0.030181 0.019221 0.010814
v 0.031516 0.018603 0.010938
v 0.029841 0.018839 0.011136
v 0.028636 0.017522 0.010562
v 0.028636 0.017522 0.010562
v 0.030965 0.017061 0.006225
v 0.029814 0.017034 0.010783
v 0.029814 0.017034 0.010783
v 0.030113 0.016726 0.006501
v 0.029070 0.017434 0.006140
v 0.032503 0.018492 0.007037
v 0.031041 0.019360 0.006846
v 0.020162 -0.024649 0.009036
v 0.023971 -0.024539 0.005398
v 0.022456 -0.025025 0.005708
v 0.026046 -0.022798 0.005385
v 0.025200 -0.022597 0.004381
v 0.025200 -0.022597 0.004381
v 0.025200 -0.022597 0.004381
v 0.026260 -0.021689 0.005912
v 0.026260 -0.021689 0.005912
v 0.026659 -0.022423 0.006056
v 0.024630 -0.022457 0.009402
v 0.024630 -0.022457 0.009402
v 0.024313 -0.021891 0.009198
v 0.024313 -0.021891 0.009198
v 0.024313 -0.021891 0.009198
v 0.025952 -0.021712 0.007755
v 0.025952 -0.021712 0.007755
v 0.035915 -0.016879 0.012054
v 0.037712 -0.010090 0.012810
v 0.035049 -0.016879 0.012492
v 0.035351 0.011748 0.012065
v 0.037335 0.005353 0.012630
v 0.035839 -0.010079 0.012787
v 0.034456 0.011748 0.012362
v 0.038239 -0.002359 0.012935
v 0.037425 -0.002359 0.013346
v 0.036794 -0.010079 0.013174
v 0.030800 -0.024504 0.010695
v 0.030394 -0.024045 0.011277
v 0.031878 -0.023133 0.011627
v 0.032217 -0.023756 0.011142
v 0.033477 -0.016879 0.011817
v 0.033477 -0.016879 0.011817
v 0.035367 -0.010081 0.012279
v 0.035367 -0.010081 0.012279
v 0.035953 -0.002359 0.012510
v 0.035953 -0.002359 0.012510
v 0.035482 0.005353 0.012610
v 0.033038 0.011748 0.011651
v 0.033038 0.011748 0.011651
v 0.034046 -0.016879 0.012184
v 0.029649 -0.022602 0.010686
v 0.029649 -0.022602 0.010686
v 0.030775 -0.022048 0.011118
v 0.030775 -0.022048 0.011118
v 0.029875 -0.022967 0.011180
v 0.033379 -0.016879 0.007382
v 0.031822 -0.021863 0.006363
v 0.034356 -0.016879 0.006994
v 0.036275 -0.010083 0.007675
v 0.035323 -0.010085 0.008001
v 0.036807 -0.002359 0.007751
v 0.032941 0.011748 0.007246
v 0.035086 0.005353 0.007794
v 0.036040 0.005353 0.007461
v 0.035954 -0.002359 0.008094
v 0.034053 0.011748 0.006845
v 0.031071 -0.021559 0.006704
v 0.029800 -0.022490 0.006481
v 0.030386 -0.022881 0.006080
v 0.032976 -0.023884 0.007205
v 0.031194 -0.024100 0.006207
v 0.031402 -0.024553 0.006721
v 0.032945 -0.023368 0.006551
v 0.038498 -0.010077 0.008827
v 0.038007 0.005353 0.008622
v 0.036198 0.011748 0.008039
v 0.038894 -0.002359 0.008979
v 0.037943 -0.010077 0.008057
v 0.036152 -0.016879 0.007370
v 0.036654 -0.016879 0.008105
v 0.031185 -0.022498 0.011532
v 0.029067 -0.016879 0.004381
v 0.029067 -0.016879 0.004381
v 0.031313 -0.009978 0.004381
v 0.031313 -0.009978 0.004381
v 0.030959 0.005353 0.004381
v 0.030959 0.005353 0.004381
v 0.028743 0.011748 0.004381
v 0.028743 0.011748 0.004381
v 0.024751 0.017332 0.004381
v 0.024751 0.017332 0.004381
v 0.024751 0.017332 0.004381
v 0.025654 0.011748 0.010156
v 0.027247 0.011748 0.009510
v 0.031017 0.005353 0.007528
v 0.031838 -0.002359 0.008377
v 0.023356 0.016657 0.009318
v 0.023356 0.016657 0.009318
v 0.023356 0.016657 0.009318
v 0.028591 0.011748 0.007384
v 0.027993 -0.016879 0.009562
v 0.029201 -0.016879 0.007929
v 0.025549 -0.016879 0.010342
v 0.030116 -0.009958 0.009908
v 0.031310 -0.009944 0.008034
v 0.028367 -0.009976 0.010820
v 0.028583 0.005353 0.010592
v 0.030122 0.005353 0.009472
v 0.032257 0.018047 0.006378
v 0.025761 0.016624 0.005657
v 0.025761 0.016624 0.005657
v 0.025779 0.017978 0.005232
v 0.026306 0.017322 0.005935
v 0.025579 0.016554 0.007588
v 0.025579 0.016554 0.007588
v 0.023860 0.017416 0.009561
v 0.023860 0.017416 0.009561
v 0.031995 -0.002359 0.004381
v 0.031995 -0.002359 0.004381
v 0.024188 0.019191 0.005282
v 0.022145 0.017749 0.009806
v 0.022732 0.019458 0.006423
v 0.020834 0.018961 0.009653
v 0.020622 0.019283 0.009387
v 0.030086 0.017335 0.011194
v 0.028926 0.017792 0.010952
v 0.030601 0.018809 0.006244
v 0.029296 0.017715 0.005887
v 0.033513 0.011748 0.012100
v 0.035403 0.011748 0.007152
v 0.038430 -0.002359 0.008241
v 0.037453 0.005353 0.007820
v 0.035044 0.005353 0.012046
v 0.035044 0.005353 0.012046
v 0.036419 0.005353 0.012902
v 0.036451 -0.002359 0.013048
v 0.001805 -0.006826 -0.011077
v 0.001805 -0.006826 -0.011077
v -0.014771 -0.008379 -0.011077
v -0.014771 -0.008379 -0.011077
v -0.014505 -0.010489 -0.011691
v -0.014505 -0.010489 -0.011691
v -0.006597 -0.009259 -0.011691
v -0.006597 -0.009259 -0.011691
v 0.009187 -0.009257 -0.011691
v 0.009187 -0.009257 -0.011691
v 0.001759 -0.008851 -0.011691
v 0.001759 -0.008851 -0.011691
v -0.024219 -0.012712 -0.011691
v -0.024219 -0.012712 -0.011691
v -0.022477 -0.012643 -0.011691
v -0.022477 -0.012643 -0.011691
v -0.025431 0.000462 -0.011691
v -0.025431 0.000462 -0.011691
v -0.024533 0.004959 -0.011691
v -0.024533 0.004959 -0.011691
v 0.012401 0.007824 -0.011691
v 0.012401 0.007824 -0.011691
v 0.012401 0.007824 -0.011691
v 0.012401 0.007824 -0.011691
v 0.006357 0.002362 -0.011691
v 0.006357 0.002362 -0.011691
v 0.006357 0.002362 -0.011691
v -0.025859 -0.004996 -0.011691
v -0.025859 -0.004996 -0.011691
v -0.025981 -0.010679 -0.011691
v -0.025981 -0.010679 -0.011691
v -0.025463 -0.011959 -0.011691
v -0.025463 -0.011959 -0.011691
v 0.018123 0.001855 -0.011691
v 0.018123 0.001855 -0.011691
v 0.018123 0.001855 -0.011691
v 0.019720 0.003348 -0.011691
v 0.019720 0.003348 -0.011691
v 0.019720 0.003348 -0.011691
v -0.018716 0.011342 -0.011691
v -0.018716 0.011342 -0.011691
v -0.021448 0.007431 -0.011691
v -0.021448 0.007431 -0.011691
v -0.023321 0.000174 -0.011691
v -0.023321 0.000174 -0.011691
v -0.023768 -0.004933 -0.011691
v -0.023768 -0.004933 -0.011691
v 0.004915 0.003982 -0.011691
v 0.004915 0.003982 -0.011691
v 0.004915 0.003982 -0.011691
v 0.021917 -0.009377 -0.011691
v 0.021917 -0.009377 -0.011691
v 0.021917 -0.009377 -0.011691
v 0.016112 -0.008153 -0.011691
v 0.016112 -0.008153 -0.011691
v 0.009318 -0.007237 -0.011691
v 0.009318 -0.007237 -0.011691
v -0.022490 0.004349 -0.011691
v -0.022490 0.004349 -0.011691
v 0.012508 0.011056 -0.011691
v 0.012508 0.011056 -0.011691
v 0.012508 0.011056 -0.011691
v 0.021475 -0.011400 -0.011691
v 0.021475 -0.011400 -0.011691
v 0.021475 -0.011400 -0.011691
v 0.015890 -0.010250 -0.011691
v 0.015890 -0.010250 -0.011691
v -0.016873 0.011928 -0.011691
v -0.016873 0.011928 -0.011691
v -0.016873 0.011928 -0.011691
v -0.005482 0.002490 -0.011691
v -0.005482 0.002490 -0.011691
v -0.005482 0.002490 -0.011691
v -0.003882 0.004137 -0.011691
v -0.003882 0.004137 -0.011691
v -0.003882 0.004137 -0.011691
v -0.023890 -0.010528 -0.011691
v -0.023890 -0.010528 -0.011691
v -0.023890 -0.010528 -0.011691
v -0.023890 -0.010528 -0.011691
v -0.023890 -0.010528 -0.011691
v -0.023890 -0.010528 -0.011691
v -0.023890 -0.010528 -0.011691
v -0.014771 -0.008379 -0.011691
v -0.014771 -0.008379 -0.011691
v -0.006667 -0.007099 -0.011691
v -0.006667 -0.007099 -0.011691
v -0.018499 0.003583 -0.011691
v -0.018499 0.003583 -0.011691
v -0.018499 0.003583 -0.011691
v -0.011466 0.011074 -0.011691
v -0.011466 0.011074 -0.011691
v -0.011466 0.011074 -0.011691
v 0.001805 -0.006826 -0.011691
v 0.001805 -0.006826 -0.011691
v -0.023471 0.008219 -0.011691
v -0.023471 0.008219 -0.011691
v -0.011358 0.007834 -0.011691
v -0.011358 0.007834 -0.011691
v -0.011358 0.007834 -0.011691
v -0.011358 0.007834 -0.011691
v -0.016915 0.002026 -0.011691
v -0.016915 0.002026 -0.011691
v -0.016915 0.002026 -0.011691
v -0.020391 0.012742 -0.011691
v -0.020391 0.012742 -0.011691
v -0.018928 0.013570 -0.011691
v -0.018928 0.013570 -0.011691
v -0.017109 0.014055 -0.011691
v -0.017109 0.014055 -0.011691
v -0.017109 0.014055 -0.011691
v 0.000000 -0.024155 0.008605
v 0.000000 -0.025489 0.007897
v -0.000000 0.019172 0.008442
v -0.009166 -0.024155 0.008897
v 0.009166 0.019255 0.008681
v 0.009166 -0.024155 0.008897
v -0.009166 0.019255 0.008681
v -0.017918 -0.025489 -0.009454
v -0.017918 -0.025489 -0.009454
v -0.005140 -0.024137 -0.007240
v -0.005140 -0.024137 -0.007240
v -0.005140 -0.024137 -0.007240
v -0.005140 -0.024137 -0.005754
v -0.005140 -0.024137 -0.005754
v -0.005140 -0.024137 -0.005754
v 0.005065 -0.024137 -0.007240
v 0.005065 -0.024137 -0.007240
v 0.005065 -0.024137 -0.007240
v 0.005065 -0.024137 -0.005754
v 0.005065 -0.024137 -0.005754
v 0.005065 -0.024137 -0.005754
v 0.005065 -0.025489 -0.007240
v 0.005065 -0.025489 -0.007240
v 0.005065 -0.025489 -0.007240
v 0.005065 -0.025489 -0.005754
v 0.005065 -0.025489 -0.005754
v 0.005065 -0.025489 -0.005754
v -0.005140 -0.025489 -0.005754
v -0.005140 -0.025489 -0.005754
v -0.005140 -0.025489 -0.005754
v 0.004634 -0.024137 -0.004876
v 0.004634 -0.024137 -0.004876
v -0.004709 -0.025489 -0.008119
v -0.004709 -0.025489 -0.008119
v -0.004709 -0.024137 -0.004876
v -0.004709 -0.024137 -0.004876
v 0.004634 -0.025489 -0.004876
v 0.004634 -0.025489 -0.004876
v -0.004709 -0.024137 -0.008119
v -0.004709 -0.024137 -0.008119
v 0.004634 -0.024137 -0.008119
v 0.004634 -0.024137 -0.008119
v 0.004634 -0.025489 -0.008119
v 0.004634 -0.025489 -0.008119
v -0.004709 -0.025489 -0.004876
v -0.004709 -0.025489 -0.004876
v -0.020129 0.009900 -0.011077
v -0.020129 0.009900 -0.011077
v -0.020129 0.009900 -0.011691
v -0.020129 0.009900 -0.011691
v -0.021928 0.011052 -0.011077
v -0.021928 0.011052 -0.011077
v -0.021928 0.011052 -0.011691
v -0.021928 0.011052 -0.011691
vn 0.0777 -0.4854 0.8708
vn -0.1347 -0.2956 0.9458
vn -0.5360 -0.6786 0.5022
vn -0.1732 -0.9215 0.3477
vn -0.1918 0.9758 0.1049
vn -0.1753 0.9194 0.3520
vn -0.0000 0.9108 0.4127
vn -0.0000 0.9940 0.1095
vn -0.6696 -0.7227 -0.1716
vn -0.5368 -0.3496 -0.7679
vn -0.2351 -0.3996 -0.8860
vn -0.2949 -0.8871 -0.3550
vn -0.5724 -0.0492 -0.8185
vn -0.5620 -0.1264 -0.8174
vn -0.9247 -0.3267 -0.1953
vn -0.9699 -0.1403 -0.1989
vn 0.2907 0.3056 0.9067
vn 0.3201 0.0891 0.9432
vn 0.1534 -0.3250 0.9332
vn 0.1389 0.2675 0.9535
vn 0.0825 0.3797 0.9214
vn 0.2463 -0.3297 0.9114
vn 0.1315 0.1602 0.9783
vn -0.0468 0.0326 0.9984
vn -0.0642 -0.0374 0.9972
vn 0.0878 -0.1311 0.9875
vn 0.1955 -0.7337 0.6507
vn 0.0436 -0.7283 0.6839
vn -0.4800 0.8139 -0.3274
vn -0.8539 -0.1620 0.4946
vn -0.8638 0.4130 -0.2886
vn 0.5521 0.0489 0.8323
vn 0.5170 -0.0000 0.8560
vn -0.1035 0.0118 0.9946
vn -0.0168 -0.0610 0.9980
vn 0.1939 -0.9810 0.0047
vn 0.1246 -0.8778 -0.4626
vn -0.4656 -0.7973 -0.3841
vn -0.4104 -0.7681 0.4915
vn 0.6794 -0.7337 -0.0098
vn 0.5015 -0.6673 -0.5506
vn -0.6048 -0.4791 -0.6361
vn -0.4948 -0.1028 -0.8629
vn -0.3650 0.8805 0.3026
vn -0.4180 0.8975 0.1406
vn -0.1045 0.3225 0.9408
vn -0.2528 0.6420 0.7239
vn -0.7609 0.2265 0.6081
vn -0.9475 0.2498 0.1998
vn -0.9475 0.0126 0.3195
vn -0.6373 0.0056 0.7706
vn 0.0348 0.0597 -0.9976
vn 0.0622 0.1290 -0.9897
vn -0.1012 -0.1664 0.9808
vn -0.7513 -0.3543 0.5568
vn -0.3979 0.9142 0.0772
vn -0.2995 0.8945 -0.3318
vn -0.2046 0.4038 -0.8917
vn -0.4508 0.3080 -0.8378
vn -0.7212 0.6573 -0.2188
vn -0.0565 0.2725 -0.9605
vn -0.3063 -0.7130 -0.6308
vn 0.7307 -0.4112 -0.5449
vn 0.7842 -0.2121 -0.5831
vn 0.0238 -0.0717 -0.9971
vn 0.0372 -0.1243 -0.9915
vn -0.9821 0.0247 -0.1867
vn -0.6222 0.0101 -0.7828
vn 0.4142 0.0608 0.9082
vn -0.8097 0.0229 0.5864
vn -0.7410 0.1948 0.6426
vn -0.9610 0.1781 -0.2114
vn -0.9808 -0.1946 0.0084
vn -0.9464 -0.1799 0.2684
vn -0.9994 0.0133 0.0323
vn 0.3606 -0.1680 0.9175
vn 0.5315 -0.4750 0.7013
vn -0.5844 0.0691 -0.8085
vn -0.9101 -0.4118 -0.0465
vn -0.8053 -0.5445 -0.2344
vn -0.8305 -0.5511 -0.0814
vn -0.8741 -0.4027 0.2717
vn 0.1482 0.9008 -0.4082
vn 0.5438 0.1369 0.8279
vn 0.4991 0.3386 0.7976
vn 0.7622 0.3635 -0.5356
vn 0.7953 0.1819 -0.5783
vn 0.9852 0.1711 0.0120
vn 0.9350 0.3544 0.0147
vn -0.1037 0.3048 0.9467
vn -0.5452 0.6760 0.4958
vn -0.6933 0.3612 0.6236
vn -0.0352 0.1390 0.9897
vn -0.9702 0.2420 -0.0092
vn -0.8582 0.4294 0.2813
vn -0.9043 0.4265 0.0203
vn 0.1772 0.9196 0.3507
vn 0.3634 0.8816 0.3013
vn 0.3946 0.9154 0.0799
vn 0.1951 0.9749 0.1075
vn 0.7804 -0.1423 0.6088
vn 0.5529 -0.0618 0.8309
vn 0.7342 -0.0057 0.6789
vn 0.2528 0.6420 0.7239
vn 0.1056 0.3236 0.9403
vn 0.4180 0.8975 0.1406
vn -0.3458 -0.7285 0.5914
vn -0.0835 -0.7904 0.6069
vn -0.2136 -0.9745 0.0683
vn -0.3540 -0.9333 -0.0598
vn -0.7652 -0.1560 0.6246
vn 0.0283 -0.0116 -0.9995
vn 0.9121 -0.4098 0.0143
vn 0.9784 -0.2063 -0.0098
vn -0.2922 0.1226 0.9485
vn -0.1167 0.0035 0.9932
vn 0.6715 -0.2394 0.7013
vn 0.4689 -0.0940 0.8782
vn 0.2548 0.9668 0.0167
vn -0.4253 0.7808 0.4577
vn -0.0080 0.0771 0.9970
vn -0.1447 0.8786 0.4551
vn -0.0878 -0.1311 0.9875
vn -0.5563 -0.3158 0.7686
vn -0.3020 -0.3404 0.8904
vn 0.0635 -0.0379 0.9973
vn -0.3950 0.0369 -0.9179
vn -0.5034 0.2684 -0.8213
vn 0.0983 -0.3865 0.9170
vn -0.6669 -0.1504 0.7298
vn 0.0565 0.2725 -0.9605
vn -0.1482 0.9008 -0.4082
vn -0.5741 0.6138 -0.5419
vn -0.0011 0.1788 -0.9839
vn -0.7311 -0.5366 0.4214
vn 0.0345 -0.2499 0.9676
vn 0.0551 -0.2846 0.9571
vn 0.0145 -0.9503 0.3110
vn -0.4423 0.8907 -0.1049
vn 0.5741 0.6138 -0.5419
vn 0.7302 0.6832 0.0043
vn 0.0755 0.5151 0.8538
vn -0.1837 -0.0866 0.9792
vn -0.1015 -0.2700 -0.9575
vn -0.0261 -0.1382 -0.9901
vn -0.0755 0.5151 0.8538
vn -0.0000 0.4201 0.9075
vn 0.8205 -0.0229 -0.5712
vn 0.9999 -0.0163 -0.0001
vn -0.3015 0.2981 0.9057
vn -0.7445 0.4454 0.4973
vn -0.6025 0.3894 0.6967
vn 0.2770 0.7109 0.6464
vn 0.0011 0.1788 -0.9839
vn -0.0000 -1.0000 -0.0000
vn -0.0145 -0.9503 0.3110
vn -0.0000 -0.8614 0.5078
vn -0.1315 0.1602 0.9783
vn 0.0463 0.0329 0.9984
vn -0.9079 0.3393 -0.2460
vn 0.1614 0.1693 0.9723
vn 0.7286 0.1011 0.6774
vn 0.0369 0.3206 0.9465
vn 0.0966 0.7068 0.7008
vn -0.2606 0.8067 -0.5303
vn -0.3282 0.8681 -0.3725
vn -0.2717 0.9207 0.2802
vn -0.0434 0.0447 0.9981
vn -0.0000 -0.0000 1.0000
vn -0.0000 -0.0000 -1.0000
vn 0.0653 -0.0000 0.9979
vn -0.0653 -0.0000 0.9979
vn -0.7743 -0.0000 0.6329
vn -0.7742 -0.0000 0.6329
vn -0.0653 -0.0001 0.9979
vn 0.7742 -0.0000 -0.6329
vn 0.0653 -0.0000 -0.9979
vn 1.0000 -0.0000 -0.0000
vn -1.0000 -0.0000 -0.0000
vn -0.5051 -0.4732 -0.7218
vn -0.6430 -0.3143 -0.6984
vn -0.3609 -0.2165 -0.9071
vn -0.2659 -0.2674 -0.9262
vn 0.3820 0.3480 -0.8561
vn 0.3110 0.4262 -0.8495
vn 0.5034 0.7065 -0.4975
vn 0.6393 0.5631 -0.5237
vn -0.0329 -0.3721 -0.9276
vn 0.0329 -0.3721 -0.9276
vn 0.2211 -0.6946 -0.6846
vn -0.2211 -0.6946 -0.6846
vn -0.7188 -0.1393 -0.6812
vn -0.7347 0.0209 -0.6781
vn -0.4242 0.0117 -0.9055
vn -0.4130 -0.0869 -0.9066
vn -0.7753 0.3734 -0.5093
vn -0.6440 0.5610 -0.5201
vn -0.3828 0.3436 -0.8575
vn -0.4886 0.2682 -0.8303
vn 0.4247 0.0108 -0.9053
vn 0.4370 0.0923 -0.8947
vn 0.7635 0.1603 -0.6256
vn 0.7339 0.0195 -0.6790
vn -0.4218 -0.6388 -0.6434
vn -0.3067 0.4266 -0.8509
vn -0.5007 0.7112 -0.4935
vn -0.7486 0.6548 -0.1040
vn -0.7467 0.6619 -0.0657
vn -0.5448 0.8380 -0.0320
vn -0.5536 0.8269 -0.0987
vn 0.5447 0.8380 -0.0320
vn 0.5536 0.8269 -0.0987
vn 0.3845 0.9179 -0.0976
vn 0.3845 0.9230 -0.0137
vn -0.3400 0.8009 -0.4929
vn -0.1710 0.8616 -0.4779
vn -0.1114 0.5225 -0.8454
vn -0.2166 0.4777 -0.8514
vn -0.7506 0.1762 -0.6368
vn -0.4435 0.1090 -0.8896
vn 0.7761 0.4039 -0.4843
vn 0.4774 0.2778 -0.8336
vn 0.6430 -0.3143 -0.6984
vn 0.3609 -0.2165 -0.9071
vn 0.4137 -0.0862 -0.9063
vn 0.7182 -0.1378 -0.6821
vn -0.3845 0.9179 -0.0976
vn -0.3845 0.9230 -0.0137
vn 0.1863 0.9773 -0.1010
vn 0.1864 0.9825 -0.0048
vn 0.1764 0.8583 -0.4819
vn 0.3322 0.8005 -0.4988
vn 0.2140 0.4806 -0.8504
vn 0.1164 0.5240 -0.8437
vn -0.0000 0.5265 -0.8502
vn -0.0000 0.8706 -0.4920
vn -0.9814 -0.1914 -0.0160
vn -0.9691 -0.1922 -0.1547
vn -0.8869 -0.4354 -0.1547
vn -0.9024 -0.4306 -0.0187
vn -0.4624 -0.8770 -0.1307
vn -0.2466 -0.9691 -0.0051
vn -0.7498 -0.6599 -0.0485
vn -0.7431 -0.6519 -0.1511
vn -0.0000 1.0000 -0.0033
vn -0.0000 0.9950 -0.1002
vn -0.9730 0.2295 -0.0230
vn -0.8930 0.4494 -0.0255
vn -0.8839 0.4523 -0.1187
vn -0.9634 0.2276 -0.1418
vn 0.2659 -0.2674 -0.9262
vn 0.5051 -0.4732 -0.7218
vn 0.4218 -0.6388 -0.6434
vn -0.9995 0.0248 -0.0170
vn -0.9883 0.0259 -0.1504
vn -0.1864 0.9825 -0.0048
vn -0.1863 0.9773 -0.1010
vn -0.0001 0.9950 -0.1002
vn 0.4423 0.8907 -0.1049
vn 0.1700 -0.1552 0.9731
vn -0.0226 0.6708 0.7413
vn -0.0076 -0.4010 0.9160
vn 0.0466 0.8971 0.4394
vn -0.5143 0.1167 -0.8496
vn -0.7917 -0.4563 -0.4062
vn -0.8427 0.1387 0.5201
vn -0.4468 0.7876 0.4242
vn -0.4985 -0.5463 0.6731
vn -0.5255 0.5334 0.6628
vn -0.0777 -0.4854 0.8708
vn 0.1732 -0.9215 0.3477
vn 0.5360 -0.6786 0.5022
vn 0.1347 -0.2956 0.9458
vn 0.6696 -0.7227 -0.1716
vn 0.2949 -0.8871 -0.3550
vn 0.2351 -0.3996 -0.8860
vn 0.5368 -0.3496 -0.7679
vn 0.5724 -0.0492 -0.8185
vn 0.9699 -0.1403 -0.1989
vn 0.9247 -0.3267 -0.1953
vn 0.5620 -0.1264 -0.8174
vn -0.3201 0.0891 0.9432
vn -0.2907 0.3056 0.9067
vn -0.1534 -0.3250 0.9332
vn -0.2463 -0.3297 0.9114
vn -0.0825 0.3797 0.9214
vn -0.1389 0.2675 0.9535
vn -0.0436 -0.7283 0.6839
vn -0.1955 -0.7337 0.6507
vn 0.4800 0.8139 -0.3274
vn 0.8638 0.4130 -0.2886
vn 0.8539 -0.1620 0.4946
vn -0.5521 0.0489 0.8323
vn 0.0168 -0.0610 0.9980
vn 0.1035 0.0118 0.9946
vn -0.5170 -0.0000 0.8560
vn -0.1939 -0.9810 0.0047
vn 0.4104 -0.7681 0.4915
vn 0.4656 -0.7973 -0.3841
vn -0.1246 -0.8778 -0.4626
vn -0.6794 -0.7337 -0.0098
vn -0.5015 -0.6673 -0.5506
vn 0.4948 -0.1028 -0.8629
vn 0.6048 -0.4791 -0.6361
vn 0.7609 0.2265 0.6081
vn 0.6373 0.0056 0.7706
vn 0.9475 0.0126 0.3195
vn 0.9475 0.2498 0.1998
vn -0.0622 0.1290 -0.9897
vn -0.0348 0.0597 -0.9976
vn 0.7513 -0.3543 0.5568
vn 0.1012 -0.1664 0.9808
vn 0.2995 0.8945 -0.3318
vn 0.7212 0.6573 -0.2188
vn 0.4508 0.3080 -0.8378
vn 0.2046 0.4038 -0.8917
vn 0.3063 -0.7130 -0.6308
vn -0.7307 -0.4112 -0.5449
vn -0.0372 -0.1243 -0.9915
vn -0.0238 -0.0717 -0.9971
vn -0.7842 -0.2121 -0.5831
vn 0.6222 0.0101 -0.7828
vn 0.9821 0.0247 -0.1867
vn -0.4142 0.0608 0.9082
vn 0.8097 0.0229 0.5864
vn 0.9610 0.1781 -0.2114
vn 0.7410 0.1948 0.6426
vn 0.9808 -0.1946 0.0084
vn 0.9994 0.0133 0.0323
vn 0.9464 -0.1799 0.2684
vn -0.5315 -0.4750 0.7013
vn -0.3606 -0.1680 0.9175
vn 0.5844 0.0691 -0.8085
vn 0.9101 -0.4118 -0.0465
vn 0.8741 -0.4027 0.2717
vn -0.5439 0.1369 0.8279
vn -0.4991 0.3386 0.7976
vn -0.7622 0.3635 -0.5356
vn -0.9350 0.3544 0.0147
vn -0.9852 0.1711 0.0120
vn -0.7953 0.1819 -0.5783
vn 0.1037 0.3048 0.9467
vn 0.0352 0.1390 0.9897
vn 0.6933 0.3612 0.6236
vn 0.5452 0.6760 0.4958
vn 0.9702 0.2420 -0.0092
vn 0.9043 0.4265 0.0203
vn 0.8582 0.4294 0.2813
vn -0.7804 -0.1423 0.6088
vn -0.7342 -0.0057 0.6789
vn -0.5529 -0.0618 0.8309
vn 0.3458 -0.7285 0.5914
vn 0.3540 -0.9333 -0.0598
vn 0.2136 -0.9745 0.0683
vn 0.0835 -0.7904 0.6069
vn 0.7652 -0.1560 0.6246
vn -0.0283 -0.0116 -0.9995
vn -0.9784 -0.2063 -0.0098
vn -0.9121 -0.4098 0.0143
vn 0.2922 0.1226 0.9485
vn 0.1167 0.0035 0.9932
vn -0.6715 -0.2394 0.7013
vn -0.4689 -0.0940 0.8782
vn 0.4253 0.7808 0.4577
vn -0.2548 0.9668 0.0167
vn 0.0080 0.0771 0.9970
vn 0.1447 0.8786 0.4552
vn 0.3020 -0.3404 0.8904
vn 0.5563 -0.3158 0.7686
vn 0.7917 -0.4563 -0.4062
vn 0.5034 0.2684 -0.8213
vn -0.0983 -0.3865 0.9170
vn 0.6669 -0.1504 0.7298
vn 0.7311 -0.5366 0.4214
vn -0.7302 0.6832 0.0043
vn 0.1837 -0.0866 0.9792
vn 0.0261 -0.1382 -0.9901
vn 0.1015 -0.2700 -0.9575
vn -0.9999 -0.0163 -0.0001
vn -0.8205 -0.0229 -0.5712
vn 0.3015 0.2981 0.9057
vn 0.6025 0.3894 0.6967
vn 0.7445 0.4454 0.4973
vn -0.2770 0.7109 0.6464
vn 0.9079 0.3393 -0.2460
vn -0.1614 0.1693 0.9723
vn -0.7286 0.1011 0.6774
vn -0.0369 0.3206 0.9465
vn -0.0966 0.7068 0.7008
vn 0.3950 0.0369 -0.9179
vn 0.3282 0.8681 -0.3725
vn 0.2606 0.8067 -0.5303
vn 0.2717 0.9207 0.2802
vn 0.7486 0.6548 -0.1040
vn 0.7467 0.6619 -0.0657
vn 0.9814 -0.1914 -0.0160
vn 0.9024 -0.4306 -0.0187
vn 0.8869 -0.4354 -0.1547
vn 0.9691 -0.1922 -0.1547
vn 0.4589 -0.8790 -0.1297
vn 0.7431 -0.6519 -0.1511
vn 0.7498 -0.6599 -0.0485
vn 0.2294 -0.9733 -0.0048
vn 0.9730 0.2295 -0.0230
vn 0.9634 0.2276 -0.1418
vn 0.8839 0.4523 -0.1187
vn 0.8929 0.4494 -0.0256
vn 0.9883 0.0259 -0.1504
vn 0.9995 0.0248 -0.0170
vn -0.1700 -0.1552 0.9731
vn 0.0226 0.6708 0.7413
vn 0.0076 -0.4010 0.9160
vn -0.0466 0.8971 0.4394
vn 0.5143 0.1167 -0.8496
vn 0.8427 0.1387 0.5201
vn 0.4468 0.7876 0.4242
vn 0.4985 -0.5463 0.6731
vn 0.5255 0.5334 0.6628
vn 0.0425 0.0440 0.9981
vn -0.1953 0.9807 -0.0000
vn -0.0932 0.9956 -0.0000
vn 0.9202 -0.3915 -0.0000
vn 0.9683 -0.2499 -0.0000
vn -0.7219 -0.6920 -0.0000
vn -0.7558 -0.6548 -0.0000
vn -0.9984 -0.0569 -0.0000
vn -0.1718 -0.9851 -0.0000
vn -0.0986 -0.9951 -0.0000
vn -0.1719 -0.9851 -0.0000
vn 0.6749 0.7379 -0.0000
vn 0.8198 -0.5726 -0.0000
vn -0.2294 0.9733 -0.0000
vn -0.7470 -0.6649 -0.0000
vn -0.2233 -0.9747 -0.0000
vn 0.0086 1.0000 -0.0000
vn 0.3031 -0.9530 -0.0000
vn 0.5288 -0.8487 -0.0000
vn 0.5288 -0.8488 -0.0000
vn 0.9770 -0.2131 -0.0000
vn -0.9988 0.0498 -0.0000
vn -0.9912 0.1321 -0.0000
vn -0.9988 0.0492 -0.0000
vn 0.7225 -0.6914 -0.0000
vn 0.6705 -0.7419 -0.0000
vn 0.2080 -0.9781 -0.0000
vn 0.2231 -0.9748 -0.0000
vn 0.2086 -0.9780 -0.0000
vn -0.9695 0.2450 -0.0000
vn -0.9194 0.3934 -0.0000
vn 0.7175 -0.6966 -0.0000
vn 0.9907 -0.1363 -0.0000
vn 0.9986 -0.0531 -0.0000
vn 0.9986 -0.0533 -0.0000
vn 0.7302 0.6832 -0.0000
vn 0.7302 0.6833 -0.0000
vn 0.6830 -0.7305 -0.0000
vn 0.9998 -0.0218 -0.0000
vn 0.0001 -1.0000 -0.0000
vn 0.1004 -0.9950 -0.0000
vn 0.1003 -0.9950 -0.0000
vn 0.1675 0.9859 -0.0000
vn 0.2063 0.9785 -0.0000
vn 0.0924 0.9957 -0.0000
vn 0.0925 0.9957 -0.0000
vn -0.8266 0.5628 -0.0000
vn -0.6429 0.7659 -0.0000
vn -0.7008 -0.7134 -0.0000
vn -0.6816 0.7317 -0.0000
vn -0.3714 0.9285 -0.0000
vn -0.7290 0.6845 -0.0000
vn -0.2578 0.9662 -0.0000
vn -0.6728 -0.7399 -0.0000
vn 0.9939 0.1100 -0.0000
vn -0.2016 -0.9795 -0.0000
vn -0.0653 -0.0000 -0.9979
vn -0.0355 -0.2507 0.9674
vn 0.0002 -0.2404 0.9707
vn 0.0002 0.0193 0.9998
vn -0.0540 -0.2858 0.9568
vn 0.0138 -0.9178 -0.3967
vn -0.0138 -0.9178 -0.3967
vn -0.7743 -0.0000 -0.6328
vn -0.9837 -0.0000 -0.1797
vn -0.9838 -0.0000 -0.1795
vn -0.9838 -0.0000 0.1795
vn 0.7743 -0.0000 0.6329
vn 0.9837 -0.0000 0.1797
vn 0.9837 -0.0000 0.1796
vn 0.9838 -0.0000 0.1795
vn 0.9838 -0.0000 -0.1795
vn 0.0653 -0.0001 0.9979
vn -0.0653 -0.0001 -0.9979
vn 0.9837 -0.0000 -0.1796
vn 0.9837 -0.0000 -0.1797
vn -0.9837 -0.0000 0.1797
vn -0.0000 -0.9084 -0.4182
vn -0.0000 -0.9248 -0.3806
vn 0.2293 -0.9733 -0.0048
vn -0.0017 -0.9731 -0.2302
vn 0.4587 -0.8791 -0.1297
vn 0.0019 -0.9937 -0.1118
vn 0.8305 -0.5511 -0.0814
vn -0.8257 0.5498 -0.1263
vn -0.7746 0.5538 -0.3055
vn 0.8257 0.5498 -0.1263
vn 0.8053 -0.5445 -0.2344
vn 0.7746 0.5538 -0.3055
vt 0.151342 0.726576
vt 0.162686 0.727142
vt 0.161098 0.732109
vt 0.151558 0.732352
vt 0.276109 0.209313
vt 0.292232 0.211109
vt 0.287339 0.276475
vt 0.271404 0.276475
vt 0.160039 0.753708
vt 0.161166 0.758357
vt 0.150183 0.759930
vt 0.150854 0.755471
vt 0.255930 0.762967
vt 0.208097 0.762181
vt 0.210045 0.756553
vt 0.256911 0.756495
vt 0.151392 0.717807
vt 0.162164 0.720748
vt 0.525973 0.701402
vt 0.540267 0.709006
vt 0.465975 0.726738
vt 0.469073 0.717291
vt 0.393824 0.464291
vt 0.345528 0.424061
vt 0.647986 0.422131
vt 0.596106 0.464905
vt 0.470781 0.712950
vt 0.510747 0.700087
vt 0.115234 0.781787
vt 0.113667 0.799455
vt 0.109005 0.786608
vt 0.255719 0.715032
vt 0.309815 0.715395
vt 0.309613 0.722473
vt 0.257048 0.721965
vt 0.469579 0.808873
vt 0.475992 0.773039
vt 0.502819 0.779778
vt 0.498032 0.816558
vt 0.460773 0.808572
vt 0.463920 0.775417
vt 0.094943 0.778098
vt 0.106501 0.776004
vt 0.302371 0.160627
vt 0.313939 0.121033
vt 0.335489 0.139906
vt 0.319101 0.163206
vt 0.438498 0.054283
vt 0.435749 0.038967
vt 0.492992 0.036279
vt 0.493375 0.051816
vt 0.253593 0.774892
vt 0.202658 0.773833
vt 0.209881 0.723180
vt 0.211847 0.729303
vt 0.286443 0.156752
vt 0.465522 0.753601
vt 0.467556 0.759103
vt 0.456593 0.758653
vt 0.456485 0.753809
vt 0.147922 0.769537
vt 0.086028 0.758834
vt 0.418532 0.780138
vt 0.368241 0.781053
vt 0.366778 0.773898
vt 0.415074 0.772390
vt 0.309659 0.756853
vt 0.309795 0.763017
vt 0.206868 0.716645
vt 0.309518 0.728818
vt 0.361887 0.728511
vt 0.363129 0.757067
vt 0.555329 0.010596
vt 0.548754 0.038477
vt 0.491955 0.003934
vt 0.458992 0.718692
vt 0.459537 0.714304
vt 0.364343 0.763787
vt 0.610390 0.030366
vt 0.659116 0.056990
vt 0.643541 0.062913
vt 0.598744 0.054730
vt 0.145078 0.775475
vt 0.204900 0.712308
vt 0.161883 0.715252
vt 0.199939 0.780821
vt 0.252386 0.782061
vt 0.253060 0.813433
vt 0.201835 0.812097
vt 0.457250 0.727593
vt 0.457254 0.732144
vt 0.406152 0.728586
vt 0.408473 0.722638
vt 0.428544 0.015329
vt 0.388537 0.057687
vt 0.378398 0.036725
vt 0.292232 0.341841
vt 0.302371 0.392322
vt 0.286443 0.396198
vt 0.276109 0.343637
vt 0.365679 0.710433
vt 0.364680 0.715376
vt 0.309955 0.710244
vt 0.319101 0.389744
vt 0.335489 0.413044
vt 0.313939 0.431917
vt 0.054604 0.720503
vt 0.063165 0.714435
vt 0.072850 0.752139
vt 0.060193 0.759841
vt 0.257892 0.728626
vt 0.310135 0.775259
vt 0.416345 0.811795
vt 0.367426 0.812300
vt 0.439446 0.067703
vt 0.493501 0.065883
vt 0.413358 0.712506
vt 0.411464 0.716692
vt 0.152405 0.807796
vt 0.122269 0.813470
vt 0.363093 0.722019
vt 0.465527 0.730710
vt 0.596106 0.088045
vt 0.596091 0.069302
vt 0.636165 0.093961
vt 0.647986 0.130819
vt 0.510127 0.771001
vt 0.521756 0.776744
vt 0.051563 0.704562
vt 0.547215 0.054571
vt 0.521003 0.640590
vt 0.523847 0.646528
vt 0.509579 0.647452
vt 0.507184 0.641139
vt 0.637230 0.076492
vt 0.657543 0.208102
vt 0.655112 0.138722
vt 0.666933 0.130841
vt 0.298953 0.111989
vt 0.159345 0.776400
vt 0.160997 0.809261
vt 0.307250 0.341564
vt 0.546964 0.068423
vt 0.475262 0.769401
vt 0.460090 0.768779
vt 0.307250 0.211386
vt 0.304341 0.276475
vt 0.310256 0.782008
vt 0.310091 0.814829
vt 0.355048 0.104751
vt 0.352275 0.082303
vt 0.393144 0.075909
vt 0.150463 0.712407
vt 0.161741 0.770087
vt 0.697243 0.435212
vt 0.666933 0.422108
vt 0.670497 0.276475
vt 0.393824 0.088659
vt 0.345528 0.128889
vt 0.407673 0.756185
vt 0.062997 0.698345
vt 0.254858 0.710260
vt 0.104866 0.692755
vt 0.106857 0.698314
vt 0.525238 0.759392
vt 0.551319 0.759232
vt 0.535790 0.745836
vt 0.338493 0.342729
vt 0.041935 0.587449
vt 0.051881 0.587449
vt 0.051881 0.664003
vt 0.041935 0.664003
vt 0.086272 0.587449
vt 0.096218 0.587449
vt 0.096218 0.664003
vt 0.086272 0.664003
vt 0.042563 0.900432
vt 0.042563 0.843036
vt 0.052450 0.843036
vt 0.052450 0.900432
vt 0.050688 0.829849
vt 0.056587 0.837658
vt 0.044754 0.834998
vt 0.080191 0.905867
vt 0.084395 0.900432
vt 0.091916 0.907929
vt 0.086731 0.913131
vt 0.115424 0.934242
vt 0.125369 0.934242
vt 0.125369 0.971374
vt 0.115424 0.971374
vt 0.086272 0.673949
vt 0.051881 0.673949
vt 0.086272 0.577503
vt 0.051881 0.577503
vt 0.115424 0.981320
vt 0.095936 0.981320
vt 0.095936 0.971374
vt 0.085990 0.971374
vt 0.085990 0.934242
vt 0.095936 0.934242
vt 0.095936 0.924297
vt 0.115424 0.924297
vt 0.975254 0.922126
vt 0.935522 0.955621
vt 0.930313 0.929982
vt 0.960115 0.900619
vt 0.686061 0.568600
vt 0.665604 0.590570
vt 0.648422 0.578746
vt 0.673615 0.551564
vt 0.978817 0.865083
vt 0.978441 0.616796
vt 0.985677 0.602477
vt 0.985881 0.879052
vt 0.883539 0.975524
vt 0.824871 0.982596
vt 0.824199 0.958696
vt 0.879324 0.951738
vt 0.714723 0.959415
vt 0.675438 0.933926
vt 0.687663 0.916754
vt 0.719042 0.939315
vt 0.821693 0.524137
vt 0.763898 0.530514
vt 0.762162 0.507459
vt 0.821948 0.500174
vt 0.996094 0.892609
vt 0.667181 0.894919
vt 0.650048 0.906896
vt 0.150563 0.205454
vt 0.053909 0.201158
vt 0.054438 0.170973
vt 0.151107 0.171126
vt 0.163471 0.387063
vt 0.260140 0.386910
vt 0.261002 0.430215
vt 0.164370 0.432932
vt 0.626590 0.866741
vt 0.609310 0.813288
vt 0.629498 0.810987
vt 0.646843 0.861349
vt 0.764977 0.976402
vt 0.766276 0.953292
vt 0.712350 0.525458
vt 0.717043 0.545460
vt 0.933967 0.525396
vt 0.929137 0.551436
vt 0.877132 0.530262
vt 0.880993 0.506209
vt 0.151969 0.127821
vt 0.055337 0.125104
vt 0.262317 0.483180
vt 0.165697 0.486234
vt 0.608886 0.672573
vt 0.625422 0.619041
vt 0.645675 0.624179
vt 0.629070 0.674676
vt 0.622099 0.742830
vt 0.601985 0.742893
vt 0.055113 0.414911
vt 0.151773 0.413761
vt 0.152846 0.466822
vt 0.056200 0.468276
vt 0.155264 0.551130
vt 0.059114 0.553986
vt 0.057451 0.519037
vt 0.154113 0.516571
vt 0.167680 0.553972
vt 0.264297 0.550933
vt 0.053686 0.301423
vt 0.053506 0.251639
vt 0.150236 0.249790
vt 0.150366 0.300094
vt 0.959589 0.580539
vt 0.974744 0.558668
vt 0.996094 0.588659
vt 0.054236 0.358653
vt 0.150905 0.357377
vt 0.056664 0.071802
vt 0.153284 0.074856
vt 0.058647 0.004064
vt 0.155264 0.007103
vt 0.298953 0.440961
vt 0.542391 0.697812
vt 0.558612 0.705238
vt 0.513981 0.692755
vt 0.543370 0.711805
vt 0.410683 0.763727
vt 0.510784 0.783416
vt 0.506762 0.797718
vt 0.551357 0.739436
vt 0.504747 0.818865
vt 0.117544 0.815070
vt 0.517582 0.597628
vt 0.517366 0.603405
vt 0.507826 0.603161
vt 0.506238 0.598195
vt 0.508885 0.624761
vt 0.518071 0.626523
vt 0.518741 0.630982
vt 0.507758 0.629410
vt 0.412994 0.634020
vt 0.412013 0.627548
vt 0.458880 0.627606
vt 0.460827 0.633233
vt 0.506760 0.591801
vt 0.517532 0.588860
vt 0.142952 0.572455
vt 0.199851 0.588344
vt 0.202949 0.597791
vt 0.128658 0.580059
vt 0.158177 0.571140
vt 0.198143 0.584003
vt 0.553690 0.652840
vt 0.559920 0.657661
vt 0.555258 0.670507
vt 0.413205 0.586085
vt 0.411876 0.593018
vt 0.359311 0.593526
vt 0.359109 0.586448
vt 0.199346 0.679925
vt 0.170892 0.687611
vt 0.166105 0.650830
vt 0.192933 0.644092
vt 0.208151 0.679625
vt 0.205004 0.646469
vt 0.562423 0.647057
vt 0.573981 0.649151
vt 0.438498 0.498667
vt 0.493375 0.501134
vt 0.492992 0.516671
vt 0.435749 0.513983
vt 0.466267 0.644885
vt 0.415332 0.645944
vt 0.457077 0.600355
vt 0.459043 0.594233
vt 0.203403 0.624654
vt 0.212439 0.624862
vt 0.212332 0.629706
vt 0.201368 0.630156
vt 0.582896 0.629887
vt 0.250392 0.651190
vt 0.253851 0.643443
vt 0.302147 0.644951
vt 0.300683 0.652105
vt 0.359129 0.634070
vt 0.359265 0.627906
vt 0.462057 0.587698
vt 0.359407 0.599871
vt 0.305795 0.628119
vt 0.307037 0.599564
vt 0.555329 0.542353
vt 0.491955 0.549016
vt 0.548754 0.514472
vt 0.209387 0.585357
vt 0.209932 0.589745
vt 0.304581 0.634840
vt 0.610390 0.522583
vt 0.598744 0.498219
vt 0.464024 0.583361
vt 0.507041 0.586304
vt 0.468985 0.651874
vt 0.467089 0.683150
vt 0.415864 0.684486
vt 0.416538 0.653113
vt 0.211674 0.598646
vt 0.260451 0.593691
vt 0.262772 0.599638
vt 0.211671 0.603196
vt 0.428544 0.537621
vt 0.378398 0.516224
vt 0.388537 0.495263
vt 0.303245 0.581485
vt 0.358969 0.581296
vt 0.304244 0.586429
vt 0.614320 0.591555
vt 0.608731 0.630894
vt 0.596075 0.623192
vt 0.605759 0.585488
vt 0.411033 0.599679
vt 0.358790 0.646312
vt 0.301498 0.683353
vt 0.252579 0.682847
vt 0.439446 0.485246
vt 0.493501 0.487067
vt 0.255566 0.583559
vt 0.257460 0.587745
vt 0.546655 0.684522
vt 0.516519 0.678848
vt 0.305831 0.593072
vt 0.203397 0.601763
vt 0.636165 0.458988
vt 0.596091 0.483648
vt 0.158141 0.654469
vt 0.147168 0.647797
vt 0.617362 0.575615
vt 0.547215 0.498379
vt 0.637230 0.476457
vt 0.507927 0.680314
vt 0.546964 0.484527
vt 0.208834 0.639832
vt 0.193662 0.640454
vt 0.358834 0.685882
vt 0.358668 0.653061
vt 0.355048 0.448199
vt 0.393144 0.477041
vt 0.352275 0.470647
vt 0.518462 0.583460
vt 0.261252 0.627237
vt 0.605928 0.569398
vt 0.414066 0.581312
vt 0.564058 0.563808
vt 0.562068 0.569366
vt 0.158797 0.642054
vt 0.117605 0.630285
vt 0.143687 0.630445
vt 0.133134 0.616889
vt 0.259596 0.352582
vt 0.162942 0.356878
vt 0.164146 0.143125
vt 0.165233 0.089760
vt 0.261879 0.091214
vt 0.260806 0.144275
vt 0.264297 0.006906
vt 0.263146 0.041465
vt 0.166484 0.038999
vt 0.168147 0.004050
vt 0.162719 0.256613
vt 0.259399 0.257942
vt 0.259270 0.308246
vt 0.162539 0.306398
vt 0.259938 0.200659
vt 0.163269 0.199383
vt 0.126533 0.568864
vt 0.110312 0.576291
vt 0.154943 0.563808
vt 0.125554 0.582858
vt 0.258241 0.634780
vt 0.162162 0.668771
vt 0.117567 0.610489
vt 0.164177 0.689917
vt 0.551380 0.686123
vt 0.338493 0.210220
vt 0.778015 0.877929
vt 0.720736 0.880619
vt 0.716134 0.867036
vt 0.721737 0.826866
vt 0.040527 0.300584
vt 0.042214 0.359884
vt 0.037710 0.359908
vt 0.036096 0.300734
vt 0.029913 0.073064
vt 0.028497 0.097511
vt 0.023968 0.097380
vt 0.025310 0.072686
vt 0.004774 0.748634
vt 0.004040 0.687820
vt 0.008562 0.687766
vt 0.009295 0.748580
vt 0.010386 0.218195
vt 0.009667 0.208410
vt 0.014026 0.208090
vt 0.014744 0.217875
vt 0.009704 0.528191
vt 0.013944 0.477319
vt 0.018557 0.477623
vt 0.014313 0.528612
vt 0.030016 0.845739
vt 0.030016 0.921330
vt 0.025494 0.921330
vt 0.025494 0.845739
vt 0.032197 0.051636
vt 0.027505 0.050807
vt 0.037881 0.233201
vt 0.033459 0.233375
vt 0.009526 0.589731
vt 0.025478 0.590093
vt 0.025375 0.594614
vt 0.009424 0.594252
vt 0.011143 0.228504
vt 0.015501 0.228184
vt 0.041092 0.422272
vt 0.036499 0.422118
vt 0.042214 0.021885
vt 0.035995 0.036046
vt 0.031215 0.034380
vt 0.037713 0.019908
vt 0.024917 0.577529
vt 0.009591 0.575814
vt 0.010101 0.571264
vt 0.025426 0.572980
vt 0.006709 0.168113
vt 0.004623 0.129447
vt 0.008994 0.129279
vt 0.011054 0.167834
vt 0.004082 0.828866
vt 0.004639 0.769749
vt 0.009160 0.769792
vt 0.008603 0.828909
vt 0.872620 0.581634
vt 0.789543 0.608574
vt 0.003995 0.654100
vt 0.004902 0.594184
vt 0.008517 0.654168
vt 0.016375 0.300363
vt 0.012050 0.240865
vt 0.016409 0.240545
vt 0.020817 0.300163
vt 0.003906 0.096786
vt 0.004345 0.071922
vt 0.008810 0.072192
vt 0.008350 0.096776
vt 0.025375 0.748586
vt 0.025375 0.670945
vt 0.029993 0.528947
vt 0.033716 0.478091
vt 0.021168 0.421402
vt 0.021955 0.358928
vt 0.008617 0.920828
vt 0.008445 0.862409
vt 0.025494 0.770160
vt 0.031101 0.230008
vt 0.029516 0.221095
vt 0.028505 0.211614
vt 0.025907 0.165666
vt 0.028851 0.205571
vt 0.024028 0.128730
vt 0.011269 0.049216
vt 0.014486 0.033598
vt 0.018368 0.022641
vt 0.024455 0.010086
vt 0.025360 0.925850
vt 0.008482 0.925348
vt 0.028456 0.128624
vt 0.030273 0.165400
vt 0.029897 0.670945
vt 0.029897 0.748586
vt 0.025373 0.753108
vt 0.009294 0.753102
vt 0.033188 0.205250
vt 0.016586 0.421263
vt 0.017444 0.358939
vt 0.034587 0.529349
vt 0.030047 0.573459
vt 0.038320 0.478371
vt 0.006868 0.048544
vt 0.010220 0.032460
vt 0.009262 0.765271
vt 0.025596 0.765639
vt 0.029897 0.594614
vt 0.014141 0.020943
vt 0.030016 0.770160
vt 0.020137 0.008037
vt 0.004095 0.920841
vt 0.003923 0.862422
vt 0.027276 0.006277
vt 0.040535 0.016099
vt 0.005506 0.570811
vt 0.084395 0.843036
vt 0.094283 0.843036
vt 0.094283 0.900432
vt 0.657543 0.344848
vt 0.659187 0.276475
vt 0.339938 0.276475
vt 0.655112 0.414227
vt 0.993175 0.614244
vt 0.993236 0.867523
vt 0.086731 0.830338
vt 0.080191 0.837602
vt 0.073856 0.834422
vt 0.080250 0.825297
vt 0.073856 0.824534
vt 0.062990 0.834422
vt 0.062990 0.824534
vt 0.056587 0.905811
vt 0.062990 0.909047
vt 0.057088 0.917891
vt 0.050688 0.913620
vt 0.073856 0.909047
vt 0.073856 0.918935
vt 0.062990 0.918935
vt 0.044754 0.908471
vt 0.091916 0.835540
vt 0.080250 0.918172
vt 0.057088 0.825578
vt 0.993295 0.688980
vt 0.725565 0.124230
vt 0.719106 0.127404
vt 0.709281 0.106247
vt 0.721230 0.649775
vt 0.773261 0.705600
vt 0.772225 0.770292
vt 0.789248 0.865991
vt 0.883163 0.914846
vt 0.842024 0.915261
vt 0.862737 0.624135
vt 0.855435 0.673742
vt 0.785133 0.695052
vt 0.745100 0.650626
vt 0.745685 0.825730
vt 0.784468 0.781906
vt 0.854752 0.789771
vt 0.865210 0.848666
vt 0.772985 0.907545
vt 0.750041 0.900255
vt 0.731611 0.890857
vt 0.700373 0.869078
vt 0.704247 0.882525
vt 0.710637 0.893236
vt 0.778479 0.596657
vt 0.744497 0.915309
vt 0.768762 0.922788
vt 0.852109 0.728299
vt 0.898195 0.903897
vt 0.899281 0.916549
vt 0.887543 0.585296
vt 0.880544 0.846308
vt 0.870426 0.789030
vt 0.866762 0.728603
vt 0.884898 0.930174
vt 0.894169 0.925937
vt 0.842965 0.930755
vt 0.870117 0.674829
vt 0.878063 0.626046
vt 0.804079 0.913007
vt 0.802329 0.928743
vt 0.723366 0.904310
vt 0.697243 0.117737
vt 0.725565 0.199295
vt 0.736495 0.199295
vt 0.735143 0.236113
vt 0.715655 0.236113
vt 0.810592 0.003906
vt 0.747097 0.132895
vt 0.743672 0.106247
vt 0.743672 0.029693
vt 0.715655 0.273245
vt 0.709281 0.293279
vt 0.714963 0.190630
vt 0.742954 0.196121
vt 0.810592 0.319066
vt 0.714401 0.318601
vt 0.735143 0.273245
vt 0.714401 0.004372
vt 0.709281 0.029693
vt 0.747097 0.190630
vt 0.742954 0.127404
vt 0.719106 0.196121
vt 0.736495 0.124230
vt 0.714963 0.132895
vt 0.643541 0.490037
vt 0.344355 0.068974
vt 0.330906 0.064387
vt 0.344356 0.483976
vt 0.659116 0.495959
vt 0.330906 0.488563
s 1
usemtl slime
f 76/1/1 77/2/2 78/3/3
f 76/1/1 78/3/3 75/4/4
f 125/5/5 145/6/6 146/7/7
f 125/5/5 146/7/7 128/8/8
f 108/9/9 111/10/10 109/11/11
f 108/9/9 109/11/11 110/12/12
f 116/13/13 117/14/14 118/15/15
f 116/13/13 118/15/15 112/16/16
f 76/1/1 93/17/17 119/18/18
f 76/1/1 119/18/18 77/2/2
f 431/19/19 433/20/20 16/21/21
f 431/19/19 16/21/21 436/22/22
f 545/23/23 180/24/24 11/25/25
f 545/23/23 11/25/25 555/26/26
f 431/19/19 436/22/22 18/27/27
f 431/19/19 18/27/27 175/28/28
f 46/29/29 52/30/30 44/31/31
f 70/32/32 446/33/33 73/34/34
f 70/32/32 73/34/34 74/35/35
f 17/36/36 25/37/37 171/38/38
f 17/36/36 171/38/38 174/39/39
f 21/40/40 24/41/41 25/37/37
f 21/40/40 25/37/37 17/36/36
f 42/42/42 40/43/43 46/29/29
f 151/44/44 143/45/45 149/46/46
f 151/44/44 149/46/46 58/47/47
f 166/48/48 153/49/49 154/50/50
f 166/48/48 154/50/50 9/51/51
f 116/13/13 97/52/52 96/53/53
f 116/13/13 96/53/53 117/14/14
f 78/3/3 77/2/2 67/54/54
f 78/3/3 67/54/54 65/55/55
f 125/5/5 123/56/56 151/44/44
f 125/5/5 151/44/44 145/6/6
f 27/57/57 437/58/58 167/59/59
f 27/57/57 167/59/59 26/60/60
f 109/11/11 107/61/61 40/43/43
f 109/11/11 40/43/43 38/62/62
f 100/63/63 101/64/64 102/65/65
f 100/63/63 102/65/65 104/66/66
f 116/13/13 112/16/16 115/67/67
f 116/13/13 115/67/67 441/68/68
f 67/54/54 77/2/2 119/18/18
f 67/54/54 119/18/18 88/69/69
f 72/70/70 69/71/71 113/72/72
f 72/70/70 113/72/72 115/67/67
f 134/73/73 163/74/74 154/50/50
f 134/73/73 154/50/50 310/75/75
f 436/22/22 435/76/76 20/77/77
f 436/22/22 20/77/77 18/27/27
f 442/78/78 441/68/68 115/67/67
f 442/78/78 115/67/67 113/72/72
f 132/79/79 43/80/80 45/81/81
f 132/79/79 160/82/82 163/74/74
f 132/79/79 163/74/74 134/73/73
f 46/29/29 40/43/43 107/61/61
f 46/29/29 107/61/61 106/83/83
f 80/84/84 88/69/69 119/18/18
f 80/84/84 119/18/18 92/85/85
f 94/86/86 98/87/87 81/88/88
f 94/86/86 81/88/88 79/89/89
f 13/90/90 15/91/91 68/92/92
f 13/90/90 68/92/92 71/93/93
f 136/94/94 153/49/49 158/95/95
f 136/94/94 158/95/95 138/96/96
f 1/97/97 2/98/98 344/99/99
f 1/97/97 344/99/99 130/100/100
f 443/101/101 85/102/102 446/33/33
f 443/101/101 446/33/33 83/103/103
f 2/98/98 6/104/104 8/105/105
f 2/98/98 8/105/105 4/106/106
f 120/107/107 31/108/108 39/109/109
f 120/107/107 39/109/109 35/110/110
f 72/70/70 66/111/111 74/35/35
f 72/70/70 74/35/35 73/34/34
f 99/112/112 97/52/52 116/13/13
f 99/112/112 116/13/13 441/68/68
f 101/64/64 100/63/63 87/113/113
f 101/64/64 87/113/113 444/114/114
f 66/111/111 112/16/16 118/15/15
f 66/111/111 118/15/15 65/55/55
f 165/115/115 166/48/48 9/51/51
f 165/115/115 9/51/51 12/116/116
f 86/117/117 439/118/118 85/102/102
f 86/117/117 85/102/102 443/101/101
f 106/83/83 90/119/119 48/120/120
f 106/83/83 48/120/120 46/29/29
f 85/102/102 445/121/121 73/34/34
f 85/102/102 73/34/34 446/33/33
f 15/91/91 14/122/122 27/57/57
f 15/91/91 27/57/57 26/60/60
f 161/123/123 159/124/124 51/125/125
f 161/123/123 51/125/125 55/126/126
f 171/38/38 170/127/127 141/128/128
f 128/8/8 146/7/7 1/97/97
f 128/8/8 1/97/97 130/100/100
f 109/11/11 38/62/62 39/109/109
f 109/11/11 39/109/109 110/12/12
f 120/107/107 32/129/129 31/108/108
f 160/82/82 159/124/124 162/130/130
f 160/82/82 162/130/130 163/74/74
f 521/131/131 520/132/132 519/133/133
f 521/131/131 519/133/133 509/134/134
f 159/124/124 160/82/82 53/135/135
f 159/124/124 53/135/135 51/125/125
f 703/136/136 33/137/137 121/138/138
f 29/139/139 143/45/45 151/44/44
f 29/139/139 151/44/44 123/56/56
f 106/83/83 105/140/140 91/141/141
f 106/83/83 91/141/141 90/119/119
f 1/97/97 5/142/142 6/104/104
f 1/97/97 6/104/104 2/98/98
f 42/42/42 35/110/110 38/62/62
f 42/42/42 38/62/62 40/43/43
f 74/35/35 67/54/54 88/69/69
f 74/35/35 88/69/69 70/32/32
f 12/116/116 9/51/51 162/130/130
f 12/116/116 162/130/130 164/143/143
f 13/90/90 435/76/76 436/22/22
f 13/90/90 436/22/22 16/21/21
f 21/40/40 87/113/113 100/63/63
f 21/40/40 100/63/63 24/41/41
f 437/58/58 438/144/144 19/145/145
f 437/58/58 19/145/145 167/59/59
f 9/51/51 154/50/50 163/74/74
f 9/51/51 163/74/74 162/130/130
f 146/7/7 145/6/6 148/146/146
f 146/7/7 148/146/146 147/147/147
f 98/87/87 103/148/148 84/149/149
f 98/87/87 84/149/149 81/88/88
f 155/150/150 172/151/151 158/95/95
f 155/150/150 158/95/95 152/152/152
f 92/85/85 119/18/18 93/17/17
f 92/85/85 93/17/17 89/153/153
f 35/110/110 39/109/109 38/62/62
f 117/14/14 96/53/53 95/154/154
f 117/14/14 95/154/154 111/10/10
f 99/112/112 102/65/65 101/64/64
f 99/112/112 101/64/64 103/148/148
f 63/155/155 60/156/156 701/157/157
f 155/150/150 152/152/152 142/158/158
f 155/150/150 142/158/158 22/159/159
f 114/160/160 68/92/92 15/91/91
f 114/160/160 15/91/91 26/60/60
f 32/129/129 54/161/161 93/17/17
f 32/129/129 93/17/17 76/1/1
f 80/84/84 82/162/162 70/32/32
f 80/84/84 70/32/32 88/69/69
f 165/115/115 142/158/158 152/152/152
f 165/115/115 152/152/152 166/48/48
f 79/89/89 91/141/141 105/140/140
f 79/89/89 105/140/140 94/86/86
f 161/123/123 164/143/143 162/130/130
f 161/123/123 162/130/130 159/124/124
f 49/163/163 47/164/164 54/161/161
f 78/3/3 108/9/9 110/12/12
f 78/3/3 110/12/12 75/4/4
f 66/111/111 65/55/55 67/54/54
f 66/111/111 67/54/54 74/35/35
f 98/87/87 94/86/86 96/53/53
f 98/87/87 96/53/53 97/52/52
f 152/152/152 158/95/95 153/49/49
f 152/152/152 153/49/49 166/48/48
f 118/15/15 117/14/14 111/10/10
f 118/15/15 111/10/10 108/9/9
f 145/6/6 151/44/44 58/47/47
f 145/6/6 58/47/47 148/146/146
f 65/55/55 118/15/15 108/9/9
f 65/55/55 108/9/9 78/3/3
f 310/75/75 154/50/50 153/49/49
f 310/75/75 153/49/49 136/94/94
f 170/127/127 430/165/165 30/166/166
f 170/127/127 30/166/166 141/128/128
f 27/57/57 432/167/167 430/165/165
f 27/57/57 430/165/165 437/58/58
f 69/71/71 68/92/92 114/160/160
f 69/71/71 114/160/160 113/72/72
f 5/142/142 704/168/168 8/105/105
f 5/142/142 8/105/105 6/104/104
f 32/129/129 76/1/1 75/4/4
f 32/129/129 75/4/4 31/108/108
f 75/4/4 110/12/12 39/109/109
f 75/4/4 39/109/109 31/108/108
s 0
f 320/169/169 209/170/169 207/171/169
f 320/169/169 207/171/169 324/172/169
f 236/173/170 318/174/170 338/175/170
f 236/173/170 338/175/170 240/176/170
s 1
f 188/177/171 194/178/172 198/179/172
f 188/177/171 198/179/172 186/180/171
f 742/181/173 741/182/174 199/179/175
f 742/181/173 199/179/175 195/183/172
f 734/184/176 184/185/177 181/186/177
f 734/184/176 181/186/177 744/187/176
s 0
f 206/171/155 208/170/155 235/173/155
f 206/171/155 235/173/155 239/176/155
f 248/188/170 341/189/170 329/190/170
f 248/188/170 329/190/170 243/191/170
f 337/192/178 325/193/178 205/171/178
f 337/192/178 205/171/178 238/176/178
f 317/194/179 237/173/179 210/170/179
f 317/194/179 210/170/179 321/195/179
f 241/191/178 328/196/178 332/197/178
f 241/191/178 332/197/178 244/198/178
f 245/198/169 331/199/169 334/200/169
f 245/198/169 334/200/169 250/201/169
f 335/202/179 340/203/179 249/188/179
f 335/202/179 249/188/179 252/201/179
s 1
f 290/204/180 292/205/181 308/206/182
f 290/204/180 308/206/182 266/207/183
f 269/208/184 315/209/185 279/210/186
f 269/208/184 279/210/186 277/211/187
f 257/212/188 259/213/189 258/214/190
f 257/212/188 258/214/190 256/215/191
f 295/216/192 297/217/193 293/218/194
f 295/216/192 293/218/194 300/219/195
f 55/126/126 33/137/137 149/46/46
f 55/126/126 149/46/46 22/159/159
f 303/220/196 299/221/197 223/222/198
f 303/220/196 223/222/198 301/223/199
f 284/224/200 287/225/201 275/226/202
f 284/224/200 275/226/202 283/227/203
f 255/228/204 290/204/180 266/207/183
f 255/228/204 266/207/183 256/215/191
f 266/207/183 257/212/188 256/215/191
f 304/229/205 223/222/198 299/221/197
f 304/229/205 299/221/197 230/230/206
f 298/231/207 139/232/208 28/233/209
f 298/231/207 28/233/209 229/234/210
f 177/235/211 278/236/212 311/237/213
f 177/235/211 311/237/213 343/238/214
f 225/239/215 234/240/216 261/241/217
f 225/239/215 261/241/217 232/242/218
f 300/219/195 308/206/182 292/205/181
f 300/219/195 292/205/181 295/216/192
f 293/218/194 297/217/193 306/243/219
f 293/218/194 306/243/219 307/244/220
f 281/245/221 288/246/222 269/208/184
f 281/245/221 269/208/184 277/211/187
f 268/247/223 272/248/224 273/249/225
f 268/247/223 273/249/225 271/250/226
f 224/251/227 229/234/210 28/233/209
f 224/251/227 28/233/209 122/252/228
f 273/249/225 284/224/200 283/227/203
f 273/249/225 283/227/203 271/250/226
f 313/253/229 129/254/230 343/238/214
f 313/253/229 343/238/214 311/237/213
f 314/255/231 312/256/232 265/257/233
f 314/255/231 265/257/233 316/258/234
f 316/258/234 231/259/235 228/260/236
f 316/258/234 228/260/236 314/255/231
f 133/261/237 294/262/238 291/263/239
f 133/261/237 291/263/239 131/264/240
f 279/210/186 315/209/185 265/257/233
f 279/210/186 265/257/233 312/256/232
f 253/265/241 34/266/242 41/267/243
f 253/265/241 41/267/243 289/268/244
f 127/269/245 129/254/230 313/253/229
f 127/269/245 313/253/229 227/270/246
f 228/260/236 231/259/235 261/241/217
f 228/260/236 261/241/217 234/240/216
f 135/271/247 137/272/248 302/273/249
f 135/271/247 302/273/249 305/274/250
f 260/275/251 286/276/252 264/277/253
f 260/275/251 264/277/253 258/214/190
f 139/232/208 298/231/207 302/273/249
f 139/232/208 302/273/249 137/272/248
f 133/261/237 309/278/254 296/279/255
f 133/261/237 296/279/255 294/262/238
f 296/279/255 309/278/254 135/271/247
f 296/279/255 135/271/247 305/274/250
f 232/242/218 304/229/205 230/230/206
f 232/242/218 230/230/206 225/239/215
f 288/246/222 281/245/221 275/226/202
f 288/246/222 275/226/202 287/225/201
f 259/213/189 260/275/251 258/214/190
f 122/252/228 124/280/256 233/281/257
f 122/252/228 233/281/257 224/251/227
f 41/267/243 131/264/240 291/263/239
f 41/267/243 291/263/239 289/268/244
f 303/220/196 301/223/199 307/244/220
f 303/220/196 307/244/220 306/243/219
f 126/282/245 226/283/258 233/281/257
f 126/282/245 233/281/257 124/280/256
s 0
f 247/188/155 242/191/155 246/198/155
f 247/188/155 246/198/155 251/201/155
s 1
f 272/248/224 268/247/223 286/276/252
f 272/248/224 286/276/252 260/275/251
f 5/142/142 1/97/97 146/7/7
f 5/142/142 146/7/7 147/147/147
f 178/284/259 344/99/99 2/98/98
f 178/284/259 2/98/98 4/106/106
f 23/285/260 150/286/261 433/20/20
f 23/285/260 433/20/20 431/19/19
f 438/144/144 25/37/37 24/41/41
f 438/144/144 24/41/41 19/145/145
f 431/19/19 175/28/28 157/287/262
f 431/19/19 157/287/262 23/285/260
f 434/288/263 433/20/20 150/286/261
f 111/10/10 95/154/154 107/61/61
f 111/10/10 107/61/61 109/11/11
f 433/20/20 434/288/263 14/122/122
f 433/20/20 14/122/122 16/21/21
f 102/65/65 442/78/78 440/289/264
f 102/65/65 440/289/264 104/66/66
f 13/90/90 16/21/21 14/122/122
f 13/90/90 14/122/122 15/91/91
f 104/66/66 19/145/145 24/41/41
f 104/66/66 24/41/41 100/63/63
f 170/127/127 438/144/144 437/58/58
f 170/127/127 437/58/58 430/165/165
f 167/59/59 440/289/264 114/160/160
f 167/59/59 114/160/160 26/60/60
f 13/90/90 71/93/93 439/118/118
f 13/90/90 439/118/118 435/76/76
f 435/76/76 439/118/118 86/117/117
f 435/76/76 86/117/117 20/77/77
f 104/66/66 440/289/264 167/59/59
f 104/66/66 167/59/59 19/145/145
f 94/86/86 105/140/140 95/154/154
f 94/86/86 95/154/154 96/53/53
f 440/289/264 442/78/78 113/72/72
f 440/289/264 113/72/72 114/160/160
f 102/65/65 99/112/112 441/68/68
f 102/65/65 441/68/68 442/78/78
f 97/52/52 99/112/112 103/148/148
f 97/52/52 103/148/148 98/87/87
f 66/111/111 72/70/70 115/67/67
f 66/111/111 115/67/67 112/16/16
f 84/149/149 103/148/148 101/64/64
f 84/149/149 101/64/64 444/114/114
f 69/71/71 72/70/70 73/34/34
f 69/71/71 73/34/34 445/121/121
f 71/93/93 445/121/121 85/102/102
f 71/93/93 85/102/102 439/118/118
f 68/92/92 69/71/71 445/121/121
f 68/92/92 445/121/121 71/93/93
f 82/162/162 83/103/103 446/33/33
f 82/162/162 446/33/33 70/32/32
f 25/37/37 438/144/144 170/127/127
f 25/37/37 170/127/127 171/38/38
f 54/161/161 47/164/164 89/153/153
f 54/161/161 89/153/153 93/17/17
f 27/57/57 14/122/122 434/288/263
f 27/57/57 434/288/263 432/167/167
f 171/38/38 169/290/265 173/291/266
f 430/165/165 432/167/167 144/292/267
f 430/165/165 144/292/267 30/166/166
f 174/39/39 171/38/38 173/291/266
f 156/293/268 174/39/39 173/291/266
f 48/120/120 50/294/269 52/30/30
f 46/29/29 48/120/120 52/30/30
f 432/167/167 434/288/263 150/286/261
f 432/167/167 150/286/261 144/292/267
f 490/295/270 489/296/271 492/297/272
f 490/295/270 492/297/272 491/298/273
f 522/299/274 524/300/275 523/301/276
f 522/299/274 523/301/276 525/302/277
f 530/303/278 526/304/279 532/305/280
f 530/303/278 532/305/280 531/306/281
f 490/295/270 491/298/273 533/307/282
f 490/295/270 533/307/282 507/308/283
f 573/309/284 578/310/285 452/311/286
f 573/309/284 452/311/286 575/312/287
f 573/309/284 568/313/288 453/314/289
f 573/309/284 453/314/289 578/310/285
f 471/315/290 469/316/291 477/317/292
f 484/318/293 488/319/294 487/320/295
f 484/318/293 487/320/295 588/321/296
f 454/322/297 569/323/298 565/324/299
f 454/322/297 565/324/299 459/325/300
f 456/326/301 454/322/297 459/325/300
f 456/326/301 459/325/300 458/327/302
f 471/315/290 465/328/303 467/329/304
f 560/330/305 447/331/306 548/332/307
f 560/330/305 548/332/307 547/333/308
f 530/303/278 531/306/281 510/334/309
f 530/303/278 510/334/309 511/335/310
f 492/297/272 479/336/311 481/337/312
f 492/297/272 481/337/312 491/298/273
f 461/338/313 460/339/314 561/340/315
f 461/338/313 561/340/315 579/341/316
f 523/301/276 463/342/317 465/328/303
f 523/301/276 465/328/303 521/131/131
f 514/343/318 518/344/319 516/345/320
f 514/343/318 516/345/320 515/346/321
f 530/303/278 583/347/322 529/348/323
f 530/303/278 529/348/323 526/304/279
f 481/337/312 502/349/324 533/307/282
f 481/337/312 533/307/282 491/298/273
f 486/350/325 529/348/323 527/351/326
f 486/350/325 527/351/326 483/352/327
f 537/353/328 571/354/329 548/332/307
f 537/353/328 548/332/307 557/355/330
f 578/310/285 453/314/289 457/356/331
f 578/310/285 457/356/331 577/357/332
f 584/358/333 527/351/326 529/348/323
f 584/358/333 529/348/323 583/347/322
f 535/359/334 537/353/328 557/355/330
f 535/359/334 557/355/330 554/360/335
f 471/315/290 520/132/132 521/131/131
f 471/315/290 521/131/131 465/328/303
f 493/361/336 505/362/337 533/307/282
f 493/361/336 533/307/282 502/349/324
f 508/363/338 494/364/339 496/365/340
f 508/363/338 496/365/340 512/366/341
f 449/367/342 485/368/343 482/369/344
f 449/367/342 482/369/344 451/370/345
f 539/371/346 541/372/347 552/373/348
f 539/371/346 552/373/348 547/333/308
f 586/374/349 498/375/350 588/321/296
f 586/374/349 588/321/296 499/376/351
f 59/377/352 62/378/353 464/379/354
f 59/377/352 464/379/354 462/380/355
f 486/350/325 487/320/295 488/319/294
f 486/350/325 488/319/294 480/381/356
f 513/382/357 583/347/322 530/303/278
f 513/382/357 530/303/278 511/335/310
f 515/346/321 585/383/358 500/384/359
f 515/346/321 500/384/359 514/343/318
f 480/381/356 479/336/311 532/305/280
f 480/381/356 532/305/280 526/304/279
f 559/385/360 448/386/361 447/331/306
f 559/385/360 447/331/306 560/330/305
f 501/387/362 586/374/349 499/376/351
f 501/387/362 499/376/351 581/388/363
f 520/132/132 471/315/290 472/389/364
f 520/132/132 472/389/364 503/390/365
f 499/376/351 588/321/296 487/320/295
f 499/376/351 487/320/295 587/391/366
f 451/370/345 460/339/314 461/338/313
f 451/370/345 461/338/313 450/392/367
f 555/26/26 11/25/25 476/393/368
f 555/26/26 476/393/368 553/394/369
f 565/324/299 562/395/370 542/396/371
f 523/301/276 524/300/275 464/379/354
f 523/301/276 464/379/354 463/342/317
f 59/377/352 462/380/355 56/397/372
f 554/360/335 557/355/330 556/398/373
f 554/360/335 556/398/373 553/394/369
f 553/394/369 476/393/368 478/399/374
f 553/394/369 478/399/374 554/360/335
f 520/132/132 503/390/365 506/400/375
f 520/132/132 506/400/375 519/133/133
f 467/329/304 465/328/303 463/342/317
f 467/329/304 463/342/317 62/378/353
f 488/319/294 484/318/293 502/349/324
f 488/319/294 502/349/324 481/337/312
f 448/386/361 558/401/376 556/398/373
f 448/386/361 556/398/373 447/331/306
f 449/367/342 452/311/286 578/310/285
f 449/367/342 578/310/285 577/357/332
f 456/326/301 458/327/302 514/343/318
f 456/326/301 514/343/318 500/384/359
f 579/341/316 561/340/315 455/402/377
f 579/341/316 455/402/377 580/403/378
f 447/331/306 556/398/373 557/355/330
f 447/331/306 557/355/330 548/332/307
f 512/366/341 496/365/340 497/404/379
f 512/366/341 497/404/379 517/405/380
f 551/406/381 546/407/382 552/373/348
f 551/406/381 552/373/348 567/408/383
f 505/362/337 504/409/384 507/308/283
f 505/362/337 507/308/283 533/307/282
f 62/378/353 463/342/317 464/379/354
f 531/306/281 525/302/277 509/134/134
f 531/306/281 509/134/134 510/334/309
f 513/382/357 517/405/380 515/346/321
f 513/382/357 515/346/321 516/345/320
f 551/406/381 180/24/24 545/23/23
f 551/406/381 545/23/23 546/407/382
f 528/410/385 460/339/314 451/370/345
f 528/410/385 451/370/345 482/369/344
f 56/397/372 490/295/270 507/308/283
f 56/397/372 507/308/283 10/411/386
f 493/361/336 502/349/324 484/318/293
f 493/361/336 484/318/293 495/412/387
f 559/385/360 560/330/305 546/407/382
f 559/385/360 546/407/382 545/23/23
f 494/364/339 508/363/338 519/133/133
f 494/364/339 519/133/133 506/400/375
f 555/26/26 553/394/369 556/398/373
f 555/26/26 556/398/373 558/401/376
f 475/413/388 10/411/386 473/414/389
f 492/297/272 489/296/271 524/300/275
f 492/297/272 524/300/275 522/299/274
f 480/381/356 488/319/294 481/337/312
f 480/381/356 481/337/312 479/336/311
f 512/366/341 511/335/310 510/334/309
f 512/366/341 510/334/309 508/363/338
f 546/407/382 560/330/305 547/333/308
f 546/407/382 547/333/308 552/373/348
f 532/305/280 522/299/274 525/302/277
f 532/305/280 525/302/277 531/306/281
f 479/336/311 492/297/272 522/299/274
f 479/336/311 522/299/274 532/305/280
f 571/354/329 539/371/346 547/333/308
f 571/354/329 547/333/308 548/332/307
f 564/415/390 542/396/371 176/416/391
f 564/415/390 176/416/391 572/417/392
f 461/338/313 579/341/316 572/417/392
f 461/338/313 572/417/392 574/418/393
f 483/352/327 527/351/326 528/410/385
f 483/352/327 528/410/385 482/369/344
f 56/397/372 462/380/355 489/296/271
f 56/397/372 489/296/271 490/295/270
f 489/296/271 462/380/355 464/379/354
f 489/296/271 464/379/354 524/300/275
f 555/26/26 558/401/376 448/386/361
f 276/419/394 278/236/212 177/235/211
f 276/419/394 177/235/211 543/420/395
f 536/421/396 534/422/397 267/423/398
f 536/421/396 267/423/398 270/424/399
f 262/425/400 285/426/401 466/427/402
f 262/425/400 466/427/402 61/428/403
f 538/429/404 274/430/405 280/431/406
f 538/429/404 280/431/406 540/432/407
f 543/420/395 540/432/407 280/431/406
f 543/420/395 280/431/406 276/419/394
f 536/421/396 270/424/399 282/433/408
f 536/421/396 282/433/408 570/434/409
f 282/433/408 274/430/405 538/429/404
f 282/433/408 538/429/404 570/434/409
f 466/427/402 285/426/401 267/423/398
f 466/427/402 267/423/398 534/422/397
f 179/435/410 573/309/284 575/312/287
f 179/435/410 575/312/287 7/436/411
f 580/403/378 455/402/377 458/327/302
f 580/403/378 458/327/302 459/325/300
f 573/309/284 179/435/410 549/437/412
f 573/309/284 549/437/412 568/313/288
f 525/302/277 523/301/276 521/131/131
f 525/302/277 521/131/131 509/134/134
f 575/312/287 452/311/286 450/392/367
f 575/312/287 450/392/367 576/438/413
f 516/345/320 518/344/319 582/439/414
f 516/345/320 582/439/414 584/358/333
f 449/367/342 451/370/345 450/392/367
f 449/367/342 450/392/367 452/311/286
f 518/344/319 514/343/318 458/327/302
f 518/344/319 458/327/302 455/402/377
f 564/415/390 572/417/392 579/341/316
f 564/415/390 579/341/316 580/403/378
f 561/340/315 460/339/314 528/410/385
f 561/340/315 528/410/385 582/439/414
f 449/367/342 577/357/332 581/388/363
f 449/367/342 581/388/363 485/368/343
f 577/357/332 457/356/331 501/387/362
f 577/357/332 501/387/362 581/388/363
f 518/344/319 455/402/377 561/340/315
f 518/344/319 561/340/315 582/439/414
f 508/363/338 510/334/309 509/134/134
f 508/363/338 509/134/134 519/133/133
f 582/439/414 528/410/385 527/351/326
f 582/439/414 527/351/326 584/358/333
f 516/345/320 584/358/333 583/347/322
f 516/345/320 583/347/322 513/382/357
f 511/335/310 512/366/341 517/405/380
f 511/335/310 517/405/380 513/382/357
f 480/381/356 526/304/279 529/348/323
f 480/381/356 529/348/323 486/350/325
f 497/404/379 585/383/358 515/346/321
f 497/404/379 515/346/321 517/405/380
f 483/352/327 587/391/366 487/320/295
f 483/352/327 487/320/295 486/350/325
f 485/368/343 581/388/363 499/376/351
f 485/368/343 499/376/351 587/391/366
f 482/369/344 485/368/343 587/391/366
f 482/369/344 587/391/366 483/352/327
f 495/412/387 484/318/293 588/321/296
f 495/412/387 588/321/296 498/375/350
f 459/325/300 565/324/299 564/415/390
f 459/325/300 564/415/390 580/403/378
f 10/411/386 507/308/283 504/409/384
f 10/411/386 504/409/384 473/414/389
f 545/23/23 555/26/26 448/386/361
f 461/338/313 574/418/393 576/438/413
f 461/338/313 576/438/413 450/392/367
f 565/324/299 566/440/415 562/395/370
f 572/417/392 176/416/391 3/441/416
f 572/417/392 3/441/416 574/418/393
f 569/323/298 566/440/415 565/324/299
f 550/442/417 566/440/415 569/323/298
f 472/389/364 477/317/292 474/443/418
f 471/315/290 477/317/292 472/389/364
f 574/418/393 3/441/416 7/436/411
f 574/418/393 7/436/411 576/438/413
f 33/137/137 703/136/136 706/444/419
f 33/137/137 706/444/419 149/46/46
f 575/312/287 576/438/413 7/436/411
s 0
f 418/445/170 375/446/170 373/447/170
f 418/445/170 373/447/170 222/448/170
s 1
f 591/449/420 365/450/421 675/451/421
f 591/449/420 675/451/421 673/452/420
f 382/453/422 376/454/423 646/455/423
f 382/453/422 646/455/423 630/456/422
f 217/457/424 405/458/424 612/459/424
s 0
f 217/457/424 612/459/424 624/460/424
s 1
f 389/461/425 213/462/426 619/463/426
f 389/461/425 619/463/426 621/464/425
f 399/465/427 391/466/428 598/467/428
f 399/465/427 598/467/428 655/468/429
s 0
f 220/469/430 411/470/430 663/471/430
f 220/469/430 663/471/430 679/472/430
s 1
f 746/473/431 382/453/422 630/456/422
f 746/473/431 630/456/422 748/474/431
f 360/475/432 591/449/420 673/452/420
f 360/475/432 673/452/420 671/476/432
s 0
f 402/477/433 353/478/433 638/479/433
f 402/477/433 638/479/433 615/480/433
s 1
f 215/481/434 389/461/425 621/464/425
f 215/481/434 621/464/425 602/482/434
f 365/450/421 589/483/435 682/484/435
f 365/450/421 682/484/435 675/451/421
f 372/485/436 374/486/437 628/487/438
f 372/485/436 628/487/438 657/488/436
s 0
f 362/489/439 385/490/439 651/491/439
f 362/489/439 651/491/439 639/492/439
s 1
f 211/493/440 351/494/441 606/495/441
f 211/493/440 606/495/441 617/496/442
f 213/462/426 211/493/440 617/496/442
f 213/462/426 617/496/442 619/463/426
s 0
f 420/497/443 422/498/443 690/499/443
f 420/497/443 690/499/443 688/500/443
s 1
f 364/501/170 219/502/170 284/224/200
f 364/501/170 284/224/200 273/249/225
s 0
f 404/503/444 401/504/444 613/480/444
f 404/503/444 613/480/444 609/505/444
s 1
f 393/506/445 387/507/446 603/508/446
f 393/506/445 603/508/446 593/509/447
f 347/510/448 349/511/449 685/512/449
f 347/510/448 685/512/449 608/513/448
f 351/494/441 347/510/448 608/513/448
f 351/494/441 608/513/448 606/495/441
s 0
f 627/514/170 623/460/170 611/459/170
f 627/514/170 611/459/170 649/515/170
f 649/515/170 610/505/170 614/480/170
f 649/515/170 614/480/170 636/479/170
f 654/468/170 643/516/170 641/492/170
f 654/468/170 641/492/170 652/491/170
f 645/517/170 643/516/170 654/468/170
f 645/517/170 654/468/170 597/467/170
f 600/518/170 683/484/170 645/517/170
f 600/518/170 645/517/170 597/467/170
f 596/519/170 674/451/170 683/484/170
f 596/519/170 683/484/170 600/518/170
f 660/520/170 686/521/170 680/472/170
f 660/520/170 680/472/170 664/471/170
f 691/499/170 676/522/170 680/472/170
f 691/499/170 680/472/170 689/500/170
f 596/519/170 594/509/170 672/452/170
f 596/519/170 672/452/170 674/451/170
f 594/509/170 604/508/170 670/476/170
f 594/509/170 670/476/170 672/452/170
f 601/482/170 669/523/170 604/508/170
f 601/482/170 620/464/170 668/524/170
f 620/464/170 618/463/170 665/525/170
f 616/496/170 635/526/170 667/527/170
f 616/496/170 667/527/170 618/463/170
f 616/496/170 605/495/170 633/528/170
f 616/496/170 633/528/170 635/526/170
f 607/513/170 647/455/170 633/528/170
f 607/513/170 633/528/170 605/495/170
f 631/456/170 647/455/170 607/513/170
f 631/456/170 607/513/170 684/512/170
f 749/474/170 752/529/170 693/530/170
f 749/474/170 693/530/170 629/487/170
f 693/530/170 695/531/170 629/487/170
f 629/487/170 695/531/170 698/532/170
f 629/487/170 698/532/170 658/488/170
f 410/533/450 414/534/450 659/520/450
f 410/533/450 659/520/450 662/471/450
s 1
f 378/535/451 380/536/452 634/526/453
f 378/535/451 634/526/453 632/528/451
f 356/537/454 408/538/454 625/514/454
s 0
f 356/537/455 625/514/455 648/515/455
f 407/539/456 218/540/456 622/460/456
f 407/539/456 622/460/456 626/514/456
s 1
f 380/536/452 359/541/457 666/527/457
f 380/536/452 666/527/457 634/526/453
f 397/542/458 395/543/459 595/519/460
f 397/542/458 595/519/460 599/518/458
f 369/544/461 363/545/462 640/492/462
f 369/544/461 640/492/462 642/516/461
f 589/483/435 367/546/463 644/517/464
f 589/483/435 644/517/464 682/484/435
f 750/547/465 345/548/466 694/530/466
f 750/547/465 694/530/466 753/529/465
s 0
f 423/549/467 416/550/467 677/522/467
f 423/549/467 677/522/467 692/499/467
f 354/551/468 357/537/468 650/515/468
f 354/551/468 650/515/468 637/479/468
s 1
f 395/543/459 393/506/445 593/509/447
f 395/543/459 593/509/447 595/519/460
f 345/548/466 425/552/469 696/531/469
f 345/548/466 696/531/469 694/530/466
s 0
f 417/553/470 221/469/470 681/472/470
f 417/553/470 681/472/470 678/522/470
s 1
f 367/546/463 369/544/461 642/516/461
f 367/546/463 642/516/461 644/517/464
f 391/466/428 397/542/458 599/518/458
f 391/466/428 599/518/458 598/467/428
f 425/552/469 427/554/471 699/532/471
f 425/552/469 699/532/471 696/531/469
f 376/454/423 378/535/451 632/528/451
f 376/454/423 632/528/451 646/455/423
s 0
f 413/555/472 419/556/472 687/521/472
f 413/555/472 687/521/472 661/520/472
s 1
f 387/507/446 215/481/434 602/482/434
f 387/507/446 602/482/434 603/508/446
s 0
f 428/557/473 371/558/473 656/488/473
f 428/557/473 656/488/473 697/532/473
s 1
f 384/559/474 399/465/427 655/468/429
f 384/559/474 655/468/429 653/491/474
f 201/560/475 203/561/475 182/562/177
f 201/560/475 182/562/177 184/185/177
f 105/140/140 106/83/83 107/61/61
f 105/140/140 107/61/61 95/154/154
f 705/563/476 700/564/477 701/157/157
f 700/564/477 705/563/476 704/168/168
f 700/564/477 704/168/168 702/565/478
f 148/146/146 58/47/47 149/46/46
f 148/146/146 149/46/46 706/444/419
f 703/136/136 700/564/477 702/565/478
f 703/136/136 702/565/478 706/444/419
f 705/563/476 57/566/479 8/105/105
f 705/563/476 8/105/105 704/168/168
f 147/147/147 702/565/478 704/168/168
f 147/147/147 704/168/168 5/142/142
f 147/147/147 148/146/146 706/444/419
f 147/147/147 706/444/419 702/565/478
f 142/158/158 165/115/115 12/116/116
f 559/385/360 545/23/23 448/386/361
f 323/567/480 258/214/190 264/277/253
f 256/215/191 708/568/481 255/228/204
f 736/569/482 731/570/482 719/571/483
f 736/569/482 719/571/483 725/572/483
f 724/573/484 720/571/484 717/574/485
f 724/573/484 717/574/485 722/575/485
f 738/576/486 709/577/487 191/578/488
f 738/576/486 191/578/488 732/579/486
f 710/577/489 713/580/490 727/581/490
f 710/577/489 727/581/490 192/582/489
f 186/180/171 738/576/486 732/579/486
f 186/180/171 732/579/486 189/583/491
f 202/584/492 201/560/475 731/570/482
f 202/584/492 731/570/482 736/569/482
f 712/580/493 734/184/176 744/187/176
f 712/580/493 744/187/176 728/585/494
f 721/586/495 716/574/495 741/182/174
f 721/586/495 741/182/174 742/181/173
f 327/587/496 256/215/191 258/214/190
f 723/588/155 743/589/155 326/590/497
f 269/208/184 288/246/222 358/591/170
f 269/208/184 358/591/170 315/209/185
s 0
f 358/591/170 355/592/170 412/593/170
s 1
f 358/591/170 412/593/170 316/258/234
s 0
f 424/594/170 361/595/170 381/596/170
f 370/597/170 368/598/170 403/599/170
f 370/597/170 403/599/170 406/600/170
s 1
f 315/209/185 358/591/170 316/258/234
f 315/209/185 316/258/234 265/257/233
s 0
f 421/601/170 415/602/170 366/603/170
f 421/601/170 366/603/170 592/604/170
f 377/605/170 383/606/170 747/607/170
f 747/607/170 375/446/170 418/445/170
f 747/607/170 418/445/170 377/605/170
s 1
f 304/229/205 232/242/218 429/608/170
f 304/229/205 429/608/170 426/609/170
f 426/609/170 346/610/170 223/222/198
f 426/609/170 223/222/198 304/229/205
f 287/225/201 284/224/200 219/502/170
f 287/225/201 219/502/170 409/611/170
f 307/244/220 301/223/199 350/612/170
f 307/244/220 350/612/170 348/613/170
s 0
f 403/599/170 368/598/170 590/614/170
f 590/614/170 412/593/170 355/592/170
f 590/614/170 355/592/170 403/599/170
s 1
f 231/259/235 316/258/234 412/593/170
f 231/259/235 412/593/170 222/448/170
s 0
f 370/597/170 406/600/170 219/502/170
f 370/597/170 219/502/170 364/501/170
s 1
f 429/608/170 232/242/218 261/241/217
f 429/608/170 261/241/217 222/448/170
f 388/615/170 257/212/188 266/207/183
f 388/615/170 266/207/183 216/616/170
f 273/249/225 272/248/224 386/617/170
f 273/249/225 386/617/170 364/501/170
s 0
f 388/615/170 394/618/170 396/619/170
s 1
f 388/615/170 396/619/170 257/212/188
f 257/212/188 396/619/170 398/620/170
f 257/212/188 398/620/170 259/213/189
s 0
f 424/594/170 421/601/170 592/604/170
f 424/594/170 592/604/170 361/595/170
s 1
f 214/621/170 390/622/170 308/206/182
f 214/621/170 308/206/182 300/219/195
f 212/623/170 214/621/170 300/219/195
f 212/623/170 300/219/195 293/218/194
f 392/624/170 400/625/170 260/275/251
f 392/624/170 260/275/251 259/213/189
f 261/241/217 231/259/235 222/448/170
s 0
f 377/605/170 418/445/170 424/594/170
f 424/594/170 381/596/170 379/626/170
f 424/594/170 379/626/170 377/605/170
s 1
f 212/623/170 293/218/194 352/627/170
f 259/213/189 398/620/170 392/624/170
f 400/625/170 386/617/170 272/248/224
f 400/625/170 272/248/224 260/275/251
f 307/244/220 348/613/170 352/627/170
f 307/244/220 352/627/170 293/218/194
s 0
f 222/448/170 373/447/170 429/608/170
s 1
f 223/222/198 346/610/170 751/628/170
f 751/628/170 350/612/170 301/223/199
f 751/628/170 301/223/199 223/222/198
f 57/566/479 11/25/25 180/24/24
f 57/566/479 180/24/24 8/105/105
s 0
f 415/602/170 412/593/170 590/614/170
f 415/602/170 590/614/170 366/603/170
s 1
f 288/246/222 287/225/201 409/611/170
f 288/246/222 409/611/170 358/591/170
f 390/622/170 216/616/170 266/207/183
f 390/622/170 266/207/183 308/206/182
f 164/143/143 161/123/123 12/116/116
f 161/123/123 142/158/158 12/116/116
f 142/158/158 161/123/123 55/126/126
f 142/158/158 55/126/126 22/159/159
f 374/486/437 746/473/431 748/474/431
f 374/486/437 748/474/431 628/487/438
f 349/511/449 750/547/465 753/529/465
f 349/511/449 753/529/465 685/512/449
s 0
f 631/456/170 684/512/170 752/529/170
f 631/456/170 752/529/170 749/474/170
s 1
f 36/629/155 63/155/155 701/157/157
f 121/138/138 36/629/155 701/157/157
f 57/566/479 705/563/476 60/156/156
f 703/136/136 121/138/138 701/157/157
f 700/564/477 703/136/136 701/157/157
f 60/156/156 705/563/476 701/157/157
s 0
f 730/570/155 200/560/155 718/571/155
f 193/630/155 729/631/155 342/632/155
f 193/630/155 342/632/155 336/633/155
f 185/185/155 735/184/155 714/580/155
s 1
f 64/634/498 204/635/155 339/636/155
f 64/634/498 339/636/155 319/637/155
s 0
f 711/577/155 739/576/155 187/180/155
f 197/179/155 740/182/155 715/574/155
f 185/185/155 714/580/155 711/577/155
f 185/185/155 711/577/155 187/180/155
s 1
f 258/214/190 323/567/480 327/587/496
f 327/587/496 708/568/481 256/215/191
f 336/633/155 333/638/155 707/639/499
f 336/633/155 707/639/499 190/640/155
s 0
f 729/631/155 745/641/155 342/632/155
s 1
f 37/642/242 254/643/241 330/644/155
s 0
f 200/560/155 197/179/155 715/574/155
f 200/560/155 715/574/155 718/571/155
s 1
f 263/645/500 64/634/498 319/637/155
f 263/645/500 319/637/155 322/646/501
f 64/634/498 37/642/242 204/635/155
f 37/642/242 183/647/155 204/635/155
s 0
f 339/636/155 204/635/155 737/648/155
s 1
f 707/639/499 326/590/497 190/640/155
f 254/643/241 707/639/499 333/638/155
f 254/643/241 333/638/155 330/644/155
s 0
f 733/649/155 193/630/155 336/633/155
f 190/640/155 733/649/155 336/633/155
s 1
f 326/590/497 339/636/155 723/588/155
s 0
f 339/636/155 737/648/155 726/650/155
f 339/636/155 726/650/155 723/588/155
s 1
f 196/651/155 190/640/155 326/590/497
f 743/589/155 196/651/155 326/590/497
s 0
f 187/180/155 197/179/155 200/560/155
f 187/180/155 200/560/155 185/185/155
f 745/641/155 183/647/155 342/632/155
s 1
f 183/647/155 37/642/242 330/644/155
s 0
f 183/647/155 330/644/155 342/632/155
s 1
f 554/360/335 478/399/374 470/652/502
f 554/360/335 470/652/502 535/359/334
f 168/653/503 140/654/504 138/96/96
f 552/373/348 541/372/347 563/655/505
f 552/373/348 563/655/505 567/408/383
f 470/652/502 468/656/506 535/359/334
f 541/372/347 544/657/507 563/655/505
f 160/82/82 132/79/79 45/81/81
f 160/82/82 45/81/81 53/135/135
f 158/95/95 172/151/151 168/653/503
f 158/95/95 168/653/503 138/96/96
f 564/415/390 565/324/299 542/396/371
f 469/316/291 471/315/290 467/329/304
f 44/31/31 42/42/42 46/29/29
f 169/290/265 171/38/38 141/128/128
